<svg xmlns="http://www.w3.org/2000/svg" xmlns:xlink="http://www.w3.org/1999/xlink" width="294.822" height="141.498" viewBox="0 0 294.822 141.498"><defs><clipPath id="a"><rect width="294.822" height="141.498" rx="7" transform="translate(0)" fill="none"/></clipPath><linearGradient id="b" x1="0.106" x2="1" y2="1.262" gradientUnits="objectBoundingBox"><stop offset="0" stop-color="#88daff"/><stop offset="1" stop-color="#6482f8"/></linearGradient></defs><g transform="translate(-98.148 -37)"><g transform="translate(98.148 37)" clip-path="url(#a)"><g transform="translate(0.485 -0.495)"><path d="M0,0H266.043l3.667,133.469s-20.781,13.212-43.024,5.974c-24.1-9.844-29.7-44.465-55.647-56.895s-69.438-2.2-108.7,0c-43.412,2.438-40.091-28.9-42.194-54.734C18.908,12.465,0,0,0,0Z" transform="translate(27.421 0.495)" fill="#70a1fa" opacity="0.365"/><path d="M0,.495,295.172,0l-.022,121.518s-18,1.7-46.2-24.245C237.1,84.82,229.047,65.6,204.592,60.08c-29.628-6.69-100.2,10.383-143.417,12.262-47.788,2.073-45-38.454-47.307-60.467C12.5-1.2,0,.495,0,.495Z" fill="url(#b)"/></g></g></g></svg>