<svg xmlns="http://www.w3.org/2000/svg" xmlns:xlink="http://www.w3.org/1999/xlink" width="364.777" height="243.036" viewBox="0 0 364.777 243.036">
  <defs>
    <linearGradient id="linear-gradient" x1="-0.111" y1="-0.134" x2="0.862" y2="0.932" gradientUnits="objectBoundingBox">
      <stop offset="0" stop-color="#80c8fc"/>
      <stop offset="1" stop-color="#5350db"/>
    </linearGradient>
    <filter id="bg-15" x="0" y="0" width="364.777" height="243.036" filterUnits="userSpaceOnUse">
      <feOffset dy="6" input="SourceAlpha"/>
      <feGaussianBlur stdDeviation="6" result="blur"/>
      <feFlood flood-color="#6887ea" flood-opacity="0.404"/>
      <feComposite operator="in" in2="blur"/>
      <feComposite in="SourceGraphic"/>
    </filter>
    <clipPath id="clip-path">
      <rect id="Mask" width="328.777" height="207.036" rx="7" fill="none"/>
    </clipPath>
    <linearGradient id="linear-gradient-2" x1="0.167" y1="0.151" x2="0.981" y2="0.504" gradientUnits="objectBoundingBox">
      <stop offset="0" stop-color="#88daff"/>
      <stop offset="1" stop-color="#6d95ee"/>
    </linearGradient>
    <linearGradient id="linear-gradient-3" x1="0.106" x2="1" y2="1.262" gradientUnits="objectBoundingBox">
      <stop offset="0" stop-color="#88daff"/>
      <stop offset="1" stop-color="#6482f8"/>
    </linearGradient>
  </defs>
  <g id="Grupo_5077" data-name="Grupo 5077" transform="translate(-404.111 -206.768)">
    <rect id="Retângulo_282" data-name="Retângulo 282" width="294" height="108" rx="7" transform="translate(440 328)" fill="#393939" opacity="0.11"/>
    <g transform="matrix(1, 0, 0, 1, 404.11, 206.77)" filter="url(#bg-15)">
      <rect id="bg-15-2" data-name="bg-15" width="328.777" height="207.036" rx="7" transform="translate(18 12)" fill="url(#linear-gradient)"/>
    </g>
    <g id="Bg-16" transform="translate(422.111 218.768)" clip-path="url(#clip-path)">
      <g id="Bg-16-2" data-name="Bg-16" transform="translate(-36.066 -0.465)">
        <path id="Path_5" d="M12.524,21.338C-13.352,36.581,9.336,66.15,9.336,66.15c.988,0,19.859-.395,42.47.142,34.006.808,76.671,2.679,76.671,2.679s43.664-19.616,20.5-54.281-45.74,4.116-54.015,7.474C62.021,35.543,33.458,9.008,12.524,21.338Z" transform="matrix(0.035, 0.999, -0.999, 0.035, 68.543, 56.662)" fill="url(#linear-gradient-2)"/>
        <path id="Path_4" d="M0,0H202.15l2.786,125.487s-15.79,12.422-32.692,5.617c-18.311-9.256-22.571-41.805-42.283-53.492s-52.762-2.07-82.592,0C14.384,79.9,16.907,50.444,15.309,26.151,14.367,11.719,0,0,0,0Z" transform="translate(161.27 0.465)" fill="#70a1fa" opacity="0.365"/>
        <path id="Path_3" d="M0,.465,224.283,0l-.017,114.251s-13.676,1.6-35.107-22.795c-9-11.708-15.12-29.775-33.7-34.97C132.944,50.2,79.318,66.249,46.484,68.015,10.172,69.964,12.291,31.86,10.538,11.164,9.494-1.128,0,.465,0,.465Z" transform="translate(140.435)" fill="url(#linear-gradient-3)"/>
      </g>
    </g>
  </g>
</svg>
