<svg xmlns="http://www.w3.org/2000/svg" xmlns:xlink="http://www.w3.org/1999/xlink" width="223.777" height="133.036" viewBox="0 0 223.777 133.036"><defs><clipPath id="a"><rect width="223.777" height="133.036" rx="7" fill="none"/></clipPath><linearGradient id="b" x1="0.106" x2="1" y2="1.262" gradientUnits="objectBoundingBox"><stop offset="0" stop-color="#88daff"/><stop offset="1" stop-color="#6482f8"/></linearGradient></defs><g transform="translate(-19566.699 -2313.109)"><g transform="translate(19567.111 2313.768)"><rect width="222.955" height="131.72" rx="7" transform="translate(0 0)" fill="none"/><g transform="translate(-0.411 -0.658)" clip-path="url(#a)"><g transform="translate(0.368 -0.465)"><path d="M0,0H202.15l2.786,125.487s-15.79,12.422-32.692,5.617c-18.311-9.256-22.571-41.805-42.283-53.492s-52.762-2.07-82.592,0C14.384,79.9,16.907,50.444,15.309,26.151,14.367,11.719,0,0,0,0Z" transform="translate(20.836 0.465)" fill="#70a1fa" opacity="0.365"/><path d="M0,.465,224.283,0l-.017,114.251s-13.676,1.6-35.107-22.795c-9-11.708-15.12-29.775-33.7-34.97C132.944,50.2,79.318,66.249,46.484,68.015,10.172,69.964,12.291,31.86,10.538,11.164,9.494-1.128,0,.465,0,.465Z" fill="url(#b)"/></g></g></g></g></svg>