<svg xmlns="http://www.w3.org/2000/svg" width="12" height="17.651" viewBox="0 0 41.998 41.1">
  <g id="Grupo_2" data-name="Grupo 2" transform="translate(-188 -532.9)">
    <g id="no" transform="translate(187.999 532.9)">
      <g id="Grupo_1" data-name="Grupo 1" transform="translate(0.001 0)">
        <path id="Caminho_1" data-name="Caminho 1" d="M35.849,6.019a21.325,21.325,0,0,0-29.7,0,20.241,20.241,0,0,0,0,29.062A21.1,21.1,0,0,0,21,41.1a21.4,21.4,0,0,0,9.97-2.459,1.223,1.223,0,0,0,.511-1.675,1.277,1.277,0,0,0-1.712-.5A18.82,18.82,0,0,1,21,38.627,18.3,18.3,0,0,1,2.528,20.55,18.3,18.3,0,0,1,21,2.473,18.3,18.3,0,0,1,39.472,20.55a17.5,17.5,0,0,1-1.111,6.21A4.14,4.14,0,0,1,35.1,28.989,3.433,3.433,0,0,1,31.632,25.6V12.561a1.264,1.264,0,0,0-2.527,0v1.263A10.708,10.708,0,0,0,21,10.145a10.532,10.532,0,0,0-10.632,10.4A10.532,10.532,0,0,0,21,30.955a10.7,10.7,0,0,0,8.293-3.9A5.981,5.981,0,0,0,35.1,31.461a6.642,6.642,0,0,0,5.529-3.609A19.442,19.442,0,0,0,42,20.55,20.2,20.2,0,0,0,35.849,6.019ZM21,28.482a7.934,7.934,0,1,1,8.106-7.932A8.029,8.029,0,0,1,21,28.482Z" transform="translate(-0.001 0)" fill="#fff"/>
      </g>
    </g>
  </g>
</svg>