<svg xmlns="http://www.w3.org/2000/svg" xmlns:xlink="http://www.w3.org/1999/xlink" width="79.684" height="65.022" viewBox="0 0 79.684 65.022">
  <defs>
    <filter id="Path_3355" x="0" y="8.184" width="79.684" height="56.838" filterUnits="userSpaceOnUse">
      <feOffset dy="3" input="SourceAlpha"/>
      <feGaussianBlur stdDeviation="3" result="blur"/>
      <feFlood flood-opacity="0.161"/>
      <feComposite operator="in" in2="blur"/>
      <feComposite in="SourceGraphic"/>
    </filter>
  </defs>
  <g id="bank" transform="translate(9 -49.045)">
    <path id="Path_3353" data-name="Path 3353" d="M80.617,87.218l3.845-24.55a4.571,4.571,0,0,0-3.787-5.236h0L28.793,49.1a4.569,4.569,0,0,0-5.235,3.787L21.714,64.371v22.7Z" transform="translate(-18.932 0)" fill="#146aa8"/>
    <path id="Path_3354" data-name="Path 3354" d="M121.92,98.413l-14.736-2.364c-9.9,15.143-25.9,25.632-38.166,32.023l52.843.128,3.845-24.55a4.57,4.57,0,0,0-3.787-5.236Z" transform="translate(-60.178 -40.983)" fill="#126099"/>
    <g transform="matrix(1, 0, 0, 1, -9, 49.05)" filter="url(#Path_3355)">
      <path id="Path_3355-2" data-name="Path 3355" d="M4.569,159.771H57.115a4.569,4.569,0,0,1,4.569,4.569v29.7a4.569,4.569,0,0,1-4.569,4.569H4.569A4.57,4.57,0,0,1,0,194.04v-29.7A4.569,4.569,0,0,1,4.569,159.771Z" transform="translate(9 -145.59)" fill="#4398d1"/>
    </g>
    <path id="Path_3356" data-name="Path 3356" d="M145.384,159.771h-.914c-10.783,19.144-30.932,32.276-43.233,38.838h44.147a4.569,4.569,0,0,0,4.569-4.569v-29.7A4.569,4.569,0,0,0,145.384,159.771Z" transform="translate(-88.268 -96.542)" fill="#3e8cc7"/>
    <rect id="Rectangle_271" data-name="Rectangle 271" width="11.423" height="9.138" transform="translate(5.711 68.941)" fill="#fdb62f"/>
    <g id="Group_5042" data-name="Group 5042" transform="translate(5.711 72.368)">
      <rect id="Rectangle_272" data-name="Rectangle 272" width="3.427" height="2.285" fill="#fd7b2f"/>
      <rect id="Rectangle_273" data-name="Rectangle 273" width="3.427" height="2.285" transform="translate(7.996)" fill="#fd7b2f"/>
    </g>
    <g id="Group_5043" data-name="Group 5043" transform="translate(4.569 68.941)">
      <rect id="Rectangle_274" data-name="Rectangle 274" width="6.854" height="2.285" transform="translate(0 17.134)" fill="#87ced9"/>
      <rect id="Rectangle_275" data-name="Rectangle 275" width="6.854" height="2.285" transform="translate(11.423 17.134)" fill="#87ced9"/>
      <rect id="Rectangle_276" data-name="Rectangle 276" width="6.854" height="2.285" transform="translate(22.846 17.134)" fill="#87ced9"/>
      <rect id="Rectangle_277" data-name="Rectangle 277" width="29.7" height="2.285" transform="translate(0 23.988)" fill="#87ced9"/>
      <rect id="Rectangle_278" data-name="Rectangle 278" width="2.285" height="4.569" transform="translate(35.411)" fill="#87ced9"/>
      <rect id="Rectangle_279" data-name="Rectangle 279" width="2.285" height="4.569" transform="translate(39.981)" fill="#87ced9"/>
      <rect id="Rectangle_280" data-name="Rectangle 280" width="2.285" height="4.569" transform="translate(44.55)" fill="#87ced9"/>
      <rect id="Rectangle_281" data-name="Rectangle 281" width="2.285" height="4.569" transform="translate(49.119)" fill="#87ced9"/>
    </g>
  </g>
</svg>
