<svg xmlns="http://www.w3.org/2000/svg" width="450" height="580" viewBox="0 0 450 580">
  <g id="_59c867e9b3fd61c03d8c50fa43bd3ce0" data-name="59c867e9b3fd61c03d8c50fa43bd3ce0" transform="translate(-101.7 -10)" style="isolation: isolate">
    <path id="Path_1" data-name="Path 1" d="M523.172,234.543H476.737V167.192C476.737,80.547,409.458,10,326.7,10S176.662,80.547,176.662,167.192v67.351H130.284c-15.761,0-28.584,13.316-28.584,29.947V560.112c0,16.512,12.823,29.888,28.584,29.888H523.172c15.761,0,28.527-13.375,28.527-29.888V264.49C551.756,247.918,538.99,234.543,523.172,234.543ZM326.7,69.894c51.237,0,92.87,43.678,92.87,97.3v67.351H233.887V167.192h-.057C233.83,113.571,275.52,69.894,326.7,69.894ZM490.069,335.865,306.759,530.7l-18.133,19.353a15.788,15.788,0,0,1-23.33,0l-18.585-20-4.689-5.031c-.169-.177-.282-.355-.452-.533l-78.239-84.337a18.482,18.482,0,0,1,0-24.916l23.33-24.916a15.788,15.788,0,0,1,23.33,0L277.158,462.7l166.25-176.663a15.788,15.788,0,0,1,23.33,0l23.33,24.916A18.364,18.364,0,0,1,490.069,335.865Z" transform="translate(0)" fill="#c9c9c9"/>
  </g>
</svg>
