<svg xmlns="http://www.w3.org/2000/svg" xmlns:xlink="http://www.w3.org/1999/xlink" width="252.432" height="73.904" viewBox="0 0 252.432 73.904">
  <defs>
    <filter id="Path_11168" x="0" y="0" width="252.432" height="73.904" filterUnits="userSpaceOnUse">
      <feOffset dy="6" input="SourceAlpha"/>
      <feGaussianBlur stdDeviation="5" result="blur"/>
      <feFlood flood-color="#91bcf5" flood-opacity="0.569"/>
      <feComposite operator="in" in2="blur"/>
      <feComposite in="SourceGraphic"/>
    </filter>
  </defs>
  <g id="btn" transform="translate(15 9)">
    <g transform="matrix(1, 0, 0, 1, -15, -9)" filter="url(#Path_11168)">
      <g id="Path_11168-2" data-name="Path 11168" transform="translate(15 9)" fill="#d66767" stroke-linejoin="round">
        <path d="M 203.5682067871094 41.904296875 L 18.86346817016602 41.904296875 C 9.564908981323242 41.904296875 1.999996781349182 32.95379638671875 1.999996781349182 21.9521484375 C 1.999996781349182 10.95050144195557 9.564908981323242 2.000001430511475 18.86346817016602 2.000001430511475 L 203.5682067871094 2.000001430511475 C 212.8667297363281 2.000001430511475 220.431640625 10.95050144195557 220.431640625 21.9521484375 C 220.431640625 32.95379638671875 212.8667297363281 41.904296875 203.5682067871094 41.904296875 Z" stroke="none"/>
        <path d="M 18.86344909667969 3.999992370605469 C 15.00929260253906 3.999992370605469 11.34970092773438 5.788681030273438 8.558792114257812 9.036556243896484 C 7.142288208007812 10.68499374389648 6.026290893554688 12.61524200439453 5.241790771484375 14.77374267578125 C 4.41778564453125 17.04083633422852 4.000015258789062 19.45602416992188 4.000015258789062 21.9521484375 C 4.000015258789062 24.44827270507812 4.41778564453125 26.86346054077148 5.241790771484375 29.13055419921875 C 6.026290893554688 31.28905487060547 7.142288208007812 33.21930694580078 8.558792114257812 34.86774444580078 C 11.34970092773438 38.11561584472656 15.00929260253906 39.90430450439453 18.86344909667969 39.90430450439453 L 203.5681915283203 39.90430450439453 C 207.4223480224609 39.90430450439453 211.0819396972656 38.11561584472656 213.8728485107422 34.86774444580078 C 215.2893524169922 33.21930694580078 216.4053497314453 31.28905487060547 217.1898498535156 29.13055419921875 C 218.0138549804688 26.86346054077148 218.431640625 24.44827270507812 218.431640625 21.9521484375 C 218.431640625 19.45602416992188 218.0138549804688 17.04083633422852 217.1898498535156 14.77374267578125 C 216.4053497314453 12.61524200439453 215.2893524169922 10.68499374389648 213.8728485107422 9.036556243896484 C 211.0819396972656 5.788681030273438 207.4223480224609 3.999992370605469 203.5681915283203 3.999992370605469 L 18.86344909667969 3.999992370605469 M 18.86344909667969 -7.62939453125e-06 L 203.5681915283203 -7.62939453125e-06 C 213.9861602783203 -7.62939453125e-06 222.4316253662109 9.828304290771484 222.4316253662109 21.9521484375 C 222.4316253662109 34.07599258422852 213.9861602783203 43.90430450439453 203.5681915283203 43.90430450439453 L 18.86344909667969 43.90430450439453 C 8.445480346679688 43.90430450439453 1.52587890625e-05 34.07599258422852 1.52587890625e-05 21.9521484375 C 1.52587890625e-05 9.828304290771484 8.445480346679688 -7.62939453125e-06 18.86344909667969 -7.62939453125e-06 Z" stroke="none" fill="#d66767"/>
      </g>
    </g>
    <text id="Delete_Card" data-name="Delete Card" transform="translate(111 27.904)" fill="#fff" font-size="18" font-family="Nunito-SemiBold, Nunito" font-weight="600"><tspan x="-48.024" y="0">Delete Card</tspan></text>
  </g>
</svg>