<svg id="btn"
    xmlns="http://www.w3.org/2000/svg" width="222.432" height="43.904" viewBox="0 0 222.432 43.904">
    <g id="Path_11168" data-name="Path 11168">
        <path id="Path_11173" data-name="Path 11173" d="M203.568,41.9H18.863C9.565,41.9,2,32.954,2,21.952S9.565,2,18.863,2h184.7c9.3,0,16.863,8.951,16.863,19.952S212.867,41.9,203.568,41.9Z" fill="#d66767"/>
        <path id="Path_11174" data-name="Path 11174" d="M18.863,4a13.578,13.578,0,0,0-10.3,5.037,18.39,18.39,0,0,0-3.317,5.737,21.369,21.369,0,0,0,0,14.357,18.39,18.39,0,0,0,3.317,5.737,13.579,13.579,0,0,0,10.3,5.037h184.7a13.579,13.579,0,0,0,10.3-5.037,18.39,18.39,0,0,0,3.317-5.737,21.369,21.369,0,0,0,0-14.357,18.39,18.39,0,0,0-3.317-5.737A13.578,13.578,0,0,0,203.568,4H18.863m0-4h184.7c10.418,0,18.863,9.828,18.863,21.952S213.986,43.9,203.568,43.9H18.863C8.445,43.9,0,34.076,0,21.952S8.445,0,18.863,0Z" fill="#d66767"/>
    </g>
    <text id="Delete_Card" data-name="Delete Card" transform="translate(48.715 27.952)" fill="#fff" font-size="18" font-family="Nunito-SemiBold, Nunito" font-weight="600">
        <tspan x="0" y="0">Delete Account</tspan>
    </text>
</svg>
