<svg xmlns="http://www.w3.org/2000/svg" width="510" height="510" viewBox="0 0 510 510">
  <path id="bla" d="M413.974,71.026A242.5,242.5,0,0,0,71.026,413.974,242.748,242.748,0,0,0,336.9,465.937l-11.688-27.63A211.141,211.141,0,0,1,242.5,455C125.327,455,30,359.673,30,242.5S125.327,30,242.5,30,455,125.327,455,242.5c0,51.323-31.534,74.7-60.834,74.7s-60.833-23.375-60.833-74.7A90.925,90.925,0,1,0,315.122,297a93.687,93.687,0,0,0,16.04,23.113,86.818,86.818,0,0,0,126.009,0C475.377,300.97,485,274.132,485,242.5A240.92,240.92,0,0,0,413.974,71.026ZM242.5,303.333A60.833,60.833,0,1,1,303.333,242.5,60.9,60.9,0,0,1,242.5,303.333Z" transform="translate(12.5 12.5)" fill="#c9c9c9" stroke="#c9c9c9" stroke-width="25"/>
</svg>
