<svg xmlns="http://www.w3.org/2000/svg" xmlns:xlink="http://www.w3.org/1999/xlink" width="313" height="78" viewBox="0 0 313 78">
  <defs>
    <linearGradient id="linear-gradient" x1="0.008" y1="0.5" x2="1" y2="0.5" gradientUnits="objectBoundingBox">
      <stop offset="0" stop-color="#a9e2fd"/>
      <stop offset="1" stop-color="#8ab1f2"/>
    </linearGradient>
    <filter id="Rectangle_4" x="0" y="0" width="313" height="78" filterUnits="userSpaceOnUse">
      <feOffset dy="6" input="SourceAlpha"/>
      <feGaussianBlur stdDeviation="5" result="blur"/>
      <feFlood flood-color="#91bcf5" flood-opacity="0.569"/>
      <feComposite operator="in" in2="blur"/>
      <feComposite in="SourceGraphic"/>
    </filter>
    <linearGradient id="linear-gradient-2" x1="0.332" y1="0.141" x2="0.585" y2="0.682" gradientUnits="objectBoundingBox">
      <stop offset="0" stop-color="#3457a0"/>
      <stop offset="1" stop-color="#3b5998"/>
    </linearGradient>
    <linearGradient id="linear-gradient-3" x1="0.714" y1="0.647" x2="-0.271" y2="-0.03" gradientUnits="objectBoundingBox">
      <stop offset="0" stop-color="#3457a0" stop-opacity="0"/>
      <stop offset="1" stop-color="#1f3f77"/>
    </linearGradient>
    <linearGradient id="linear-gradient-4" x1="0.5" y1="0.177" x2="0.5" y2="0.855" xlink:href="#linear-gradient-3"/>
    <linearGradient id="linear-gradient-5" x1="1.26" y1="0.791" x2="0.043" y2="0.371" gradientUnits="objectBoundingBox">
      <stop offset="0" stop-color="#3457a0" stop-opacity="0"/>
      <stop offset="0.325" stop-color="#2a4c8d" stop-opacity="0.325"/>
      <stop offset="0.705" stop-color="#22427d" stop-opacity="0.706"/>
      <stop offset="1" stop-color="#1f3f77"/>
    </linearGradient>
  </defs>
  <g id="btn" transform="translate(15 9)">
    <g transform="matrix(1, 0, 0, 1, -15, -9)" filter="url(#Rectangle_4)">
      <rect id="Rectangle_4-2" data-name="Rectangle 4" width="283" height="48" rx="24" transform="translate(15 9)" fill="url(#linear-gradient)"/>
    </g>
    <text id="Go_To_Profile_" data-name="Go To Profile
" transform="translate(152 30)" fill="#fff" font-size="18" font-family="Nunito-SemiBold, Nunito" font-weight="600"><tspan x="-52.434" y="0">Go To Profile</tspan><tspan x="0" y="24"></tspan></text>
    <g id="facebook" transform="translate(20.408 8.408)">
      <path id="Path_11143" data-name="Path 11143" d="M25.377,30.375a93.347,93.347,0,0,1-19.849,0,5.627,5.627,0,0,1-5-5,93.344,93.344,0,0,1,0-19.849,5.627,5.627,0,0,1,5-5,93.344,93.344,0,0,1,19.849,0,5.627,5.627,0,0,1,5,5,93.344,93.344,0,0,1,0,19.849,5.627,5.627,0,0,1-5,5Zm0,0" transform="translate(0)" fill="url(#linear-gradient-2)"/>
      <path id="Path_11144" data-name="Path 11144" d="M55.788,33.739A4.993,4.993,0,0,0,51.353,29.3a82.863,82.863,0,0,0-17.614,0A4.994,4.994,0,0,0,29.3,33.739a82.861,82.861,0,0,0,0,17.613,4.994,4.994,0,0,0,4.436,4.436,82.83,82.83,0,0,0,17.613,0,4.993,4.993,0,0,0,4.436-4.436,82.831,82.831,0,0,0,0-17.613Zm0,0" transform="translate(-27.094 -27.094)" fill="url(#linear-gradient-3)"/>
      <path id="Path_11145" data-name="Path 11145" d="M7.672,409.8q.032.32.066.641a5.627,5.627,0,0,0,5,5,93.344,93.344,0,0,0,19.849,0,5.627,5.627,0,0,0,5-5q.034-.32.066-.641Zm0,0" transform="translate(-7.209 -385.069)" fill="url(#linear-gradient-4)"/>
      <path id="Path_11146" data-name="Path 11146" d="M227.476,85.269a4.875,4.875,0,0,0-4.875,4.876v3.642h-2.624V98.3l2.624,2.35v10.38a93.54,93.54,0,0,0,9.475-.528,5.627,5.627,0,0,0,5-5,93.331,93.331,0,0,0,.4-14.771l-5.459-5.459Zm0,0" transform="translate(-206.699 -80.123)" fill="url(#linear-gradient-5)"/>
      <path id="Path_11147" data-name="Path 11147" d="M222.6,111.027q2.7-.013,5.4-.183V98.3h3.583l.433-4.509H228V90.924a1.145,1.145,0,0,1,1.145-1.145h2.871V85.27h-4.542a4.875,4.875,0,0,0-4.875,4.876v3.642h-2.624V98.3H222.6Zm0,0" transform="translate(-206.698 -80.123)" fill="#fff"/>
    </g>
  </g>
</svg>
