<svg xmlns="http://www.w3.org/2000/svg" xmlns:xlink="http://www.w3.org/1999/xlink" width="30.905" height="30.905" viewBox="0 0 30.905 30.905"><defs><linearGradient id="a" x1="0.332" y1="0.141" x2="0.585" y2="0.682" gradientUnits="objectBoundingBox"><stop offset="0" stop-color="#3457a0"/><stop offset="1" stop-color="#3b5998"/></linearGradient><linearGradient id="b" x1="0.714" y1="0.647" x2="-0.271" y2="-0.03" gradientUnits="objectBoundingBox"><stop offset="0" stop-color="#3457a0" stop-opacity="0"/><stop offset="1" stop-color="#1f3f77"/></linearGradient></defs><g transform="translate(0 -0.999)"><path d="M25.377,30.375a93.347,93.347,0,0,1-19.849,0,5.627,5.627,0,0,1-5-5,93.344,93.344,0,0,1,0-19.849,5.627,5.627,0,0,1,5-5,93.344,93.344,0,0,1,19.849,0,5.627,5.627,0,0,1,5,5,93.344,93.344,0,0,1,0,19.849,5.627,5.627,0,0,1-5,5Zm0,0" transform="translate(0 1)" fill="url(#a)"/><path d="M55.788,33.739A4.993,4.993,0,0,0,51.353,29.3a82.863,82.863,0,0,0-17.614,0A4.994,4.994,0,0,0,29.3,33.739a82.861,82.861,0,0,0,0,17.613,4.994,4.994,0,0,0,4.436,4.436,82.83,82.83,0,0,0,17.613,0,4.993,4.993,0,0,0,4.436-4.436,82.831,82.831,0,0,0,0-17.613Zm0,0" transform="translate(-27.094 -26.094)" fill="url(#b)"/><path d="M222.6,111.027q2.7-.013,5.4-.183V98.3h3.583l.433-4.509H228V90.924a1.145,1.145,0,0,1,1.145-1.145h2.871V85.27h-4.542a4.875,4.875,0,0,0-4.875,4.876v3.642h-2.624V98.3H222.6Zm0,0" transform="translate(-206.699 -79.124)" fill="#fff"/></g></svg>