<svg xmlns="http://www.w3.org/2000/svg" xmlns:xlink="http://www.w3.org/1999/xlink" width="31.5" height="31.5" viewBox="0 0 31.5 31.5"><defs><linearGradient id="a" x1="0.332" y1="0.141" x2="0.585" y2="0.682" gradientUnits="objectBoundingBox"><stop offset="0" stop-color="#3457a0"/><stop offset="1" stop-color="#3b5998"/></linearGradient></defs><g transform="translate(-22.953 -9.797)"><g transform="translate(20.408 10.408)"><g transform="translate(2.545 -0.611)"><path d="M25.866,30.96a95.144,95.144,0,0,1-20.232,0,5.736,5.736,0,0,1-5.095-5.1,95.141,95.141,0,0,1,0-20.231A5.736,5.736,0,0,1,5.634.539a95.141,95.141,0,0,1,20.231,0,5.736,5.736,0,0,1,5.1,5.095,95.142,95.142,0,0,1,0,20.231,5.735,5.735,0,0,1-5.095,5.1Zm0,0" transform="translate(0 0.001)" fill="url(#a)"/><path d="M222.651,111.522q2.753-.013,5.5-.187V98.547h3.652l.441-4.6h-4.094V91.033a1.167,1.167,0,0,1,1.167-1.167h2.927v-4.6H227.62a4.969,4.969,0,0,0-4.969,4.969v3.712h-2.674v4.6h2.674Zm0,0" transform="translate(-206.443 -80.024)" fill="#fff"/></g></g></g></svg>
