<svg xmlns="http://www.w3.org/2000/svg" xmlns:xlink="http://www.w3.org/1999/xlink" width="37" height="37" viewBox="0 0 37 37">
  <defs>
    <linearGradient id="linear-gradient" x1="0.332" y1="0.141" x2="0.585" y2="0.682" gradientUnits="objectBoundingBox">
      <stop offset="0" stop-color="#3457a0"/>
      <stop offset="1" stop-color="#3b5998"/>
    </linearGradient>
    <linearGradient id="linear-gradient-2" x1="0.714" y1="0.647" x2="-0.271" y2="-0.03" gradientUnits="objectBoundingBox">
      <stop offset="0" stop-color="#3457a0" stop-opacity="0"/>
      <stop offset="1" stop-color="#1f3f77"/>
    </linearGradient>
    <linearGradient id="linear-gradient-3" x1="0.5" y1="0.177" x2="0.5" y2="0.855" xlink:href="#linear-gradient-2"/>
    <linearGradient id="linear-gradient-4" x1="1.26" y1="0.791" x2="0.043" y2="0.371" gradientUnits="objectBoundingBox">
      <stop offset="0" stop-color="#3457a0" stop-opacity="0"/>
      <stop offset="0.325" stop-color="#2a4c8d" stop-opacity="0.325"/>
      <stop offset="0.705" stop-color="#22427d" stop-opacity="0.706"/>
      <stop offset="1" stop-color="#1f3f77"/>
    </linearGradient>
  </defs>
  <g id="Group_5055" data-name="Group 5055" transform="translate(-304 -332.257)">
    <g id="facebook" transform="translate(304 332.258)">
      <path id="Path_3383" data-name="Path 3383" d="M30.382,36.366a111.756,111.756,0,0,1-23.764,0A6.737,6.737,0,0,1,.633,30.381a111.753,111.753,0,0,1,0-23.764A6.737,6.737,0,0,1,6.618.633a111.753,111.753,0,0,1,23.764,0,6.737,6.737,0,0,1,5.985,5.984,111.754,111.754,0,0,1,0,23.764,6.737,6.737,0,0,1-5.984,5.985Zm0,0" fill="url(#linear-gradient)"/>
      <path id="Path_3384" data-name="Path 3384" d="M62.058,34.88a6.155,6.155,0,0,0-5.467-5.468,102.136,102.136,0,0,0-21.71,0,6.156,6.156,0,0,0-5.468,5.468,102.134,102.134,0,0,0,0,21.71,6.155,6.155,0,0,0,5.468,5.468,102.1,102.1,0,0,0,21.71,0,6.155,6.155,0,0,0,5.468-5.468,102.1,102.1,0,0,0,0-21.71Zm0,0" transform="translate(-27.235 -27.236)" fill="url(#linear-gradient-2)"/>
      <path id="Path_3385" data-name="Path 3385" d="M7.672,409.8q.038.294.08.589c.339,2.421,2.849,4.333,6.028,4.592a147.576,147.576,0,0,0,23.935,0c3.178-.258,5.688-2.171,6.028-4.592q.041-.294.08-.589Zm0,0" transform="translate(-7.247 -378.472)" fill="url(#linear-gradient-3)"/>
      <path id="Path_3386" data-name="Path 3386" d="M226.865,85.27a4.478,4.478,0,0,0-4.478,4.478v3.345h-2.41v4.142l2.41,2.159v9.535a85.924,85.924,0,0,0,8.7-.485,5.169,5.169,0,0,0,4.592-4.592,85.724,85.724,0,0,0,.37-13.568l-5.015-5.015Zm0,0" transform="translate(-199.168 -71.93)" fill="url(#linear-gradient-4)"/>
      <path id="Path_3387" data-name="Path 3387" d="M222.386,108.929q2.481-.012,4.961-.168V97.235h3.292l.4-4.142h-3.689v-2.63a1.052,1.052,0,0,1,1.052-1.052h2.638V85.27h-4.172a4.478,4.478,0,0,0-4.478,4.478v3.345h-2.41v4.142h2.41Zm0,0" transform="translate(-201.718 -71.931)" fill="#fff"/>
    </g>
  </g>
</svg>
