<svg xmlns="http://www.w3.org/2000/svg" xmlns:xlink="http://www.w3.org/1999/xlink" width="313" height="78" viewBox="0 0 313 78">
  <defs>
    <linearGradient id="linear-gradient" x1="0.008" y1="0.5" x2="1" y2="0.5" gradientUnits="objectBoundingBox">
      <stop offset="0" stop-color="#a9e2fd"/>
      <stop offset="1" stop-color="#8ab1f2"/>
    </linearGradient>
    <filter id="Rectangle_4" x="0" y="0" width="313" height="78" filterUnits="userSpaceOnUse">
      <feOffset dy="6" input="SourceAlpha"/>
      <feGaussianBlur stdDeviation="5" result="blur"/>
      <feFlood flood-color="#91bcf5" flood-opacity="0.569"/>
      <feComposite operator="in" in2="blur"/>
      <feComposite in="SourceGraphic"/>
    </filter>
    <radialGradient id="radial-gradient" cx="0.205" cy="0.874" r="1.103" gradientTransform="translate(0)" gradientUnits="objectBoundingBox">
      <stop offset="0" stop-color="#fae100"/>
      <stop offset="0.054" stop-color="#fadc04"/>
      <stop offset="0.117" stop-color="#fbce0e"/>
      <stop offset="0.183" stop-color="#fcb720"/>
      <stop offset="0.251" stop-color="#fe9838"/>
      <stop offset="0.305" stop-color="#ff7950"/>
      <stop offset="0.492" stop-color="#ff1c74"/>
      <stop offset="1" stop-color="#6c1cd1"/>
    </radialGradient>
    <linearGradient id="linear-gradient-2" x1="0.369" y1="0.426" x2="-1.54" y2="-0.648" gradientUnits="objectBoundingBox">
      <stop offset="0" stop-color="#a1b5d8" stop-opacity="0"/>
      <stop offset="0.309" stop-color="#90a2bd" stop-opacity="0.31"/>
      <stop offset="0.755" stop-color="#7c8b9c" stop-opacity="0.757"/>
      <stop offset="1" stop-color="#748290"/>
    </linearGradient>
    <linearGradient id="linear-gradient-3" x1="0.5" y1="0.413" x2="0.5" y2="1.193" gradientUnits="objectBoundingBox">
      <stop offset="0" stop-color="#fae100" stop-opacity="0"/>
      <stop offset="0.307" stop-color="#fca800" stop-opacity="0.306"/>
      <stop offset="0.627" stop-color="#fe7300" stop-opacity="0.627"/>
      <stop offset="0.868" stop-color="#ff5200" stop-opacity="0.867"/>
      <stop offset="1" stop-color="#ff4500"/>
    </linearGradient>
    <linearGradient id="linear-gradient-4" x1="0.316" y1="0.311" x2="0.012" y2="0.005" gradientUnits="objectBoundingBox">
      <stop offset="0" stop-color="#833ab4" stop-opacity="0"/>
      <stop offset="1" stop-color="#833ab4"/>
    </linearGradient>
    <linearGradient id="linear-gradient-5" x1="0.582" y1="0.887" x2="0.418" y2="0.113" xlink:href="#linear-gradient-4"/>
    <linearGradient id="linear-gradient-6" x1="0.605" y1="0.605" x2="-0.16" y2="-0.16" xlink:href="#linear-gradient-4"/>
    <linearGradient id="linear-gradient-7" x1="0.376" y1="0.332" x2="-0.072" y2="-0.063" xlink:href="#linear-gradient-4"/>
    <linearGradient id="linear-gradient-8" x1="0.816" y1="0.182" x2="0.172" y2="0.835" gradientUnits="objectBoundingBox">
      <stop offset="0" stop-color="#833ab4"/>
      <stop offset="0.092" stop-color="#9c3495"/>
      <stop offset="0.293" stop-color="#dc2546"/>
      <stop offset="0.392" stop-color="#fd1d1d"/>
      <stop offset="0.559" stop-color="#fc6831"/>
      <stop offset="0.689" stop-color="#fc9b40"/>
      <stop offset="0.752" stop-color="#fcaf45"/>
      <stop offset="0.781" stop-color="#fdb750"/>
      <stop offset="0.866" stop-color="#fecb6a"/>
      <stop offset="0.942" stop-color="#ffd87a"/>
      <stop offset="1" stop-color="#ffdc80"/>
    </linearGradient>
  </defs>
  <g id="btn" transform="translate(15 9)">
    <g transform="matrix(1, 0, 0, 1, -15, -9)" filter="url(#Rectangle_4)">
      <rect id="Rectangle_4-2" data-name="Rectangle 4" width="283" height="48" rx="24" transform="translate(15 9)" fill="url(#linear-gradient)"/>
    </g>
    <text id="Go_To_Profile" data-name="Go To Profile" transform="translate(152 30)" fill="#fff" font-size="18" font-family="Nunito-SemiBold, Nunito" font-weight="600"><tspan x="-52.434" y="0">Go To Profile</tspan></text>
    <g id="instagram-sketched" transform="translate(20 8)">
      <path id="Path_11148" data-name="Path 11148" d="M30.776,5.6A5.7,5.7,0,0,0,25.712.536,94.577,94.577,0,0,0,5.6.536,5.7,5.7,0,0,0,.536,5.6a94.577,94.577,0,0,0,0,20.111A5.7,5.7,0,0,0,5.6,30.777a94.579,94.579,0,0,0,20.112,0,5.7,5.7,0,0,0,5.065-5.065,94.576,94.576,0,0,0,0-20.111Zm0,0" transform="translate(0 0)" fill="url(#radial-gradient)"/>
      <path id="Path_11149" data-name="Path 11149" d="M56.144,33.8A5.059,5.059,0,0,0,51.65,29.31a83.957,83.957,0,0,0-17.846,0A5.06,5.06,0,0,0,29.309,33.8a83.955,83.955,0,0,0,0,17.846A5.06,5.06,0,0,0,33.8,56.145a83.924,83.924,0,0,0,17.846,0,5.059,5.059,0,0,0,4.494-4.494,83.924,83.924,0,0,0,0-17.846Zm0,0" transform="translate(-27.071 -27.071)" fill="url(#linear-gradient-2)"/>
      <path id="Path_11150" data-name="Path 11150" d="M7.672,409.8q.032.325.067.649a5.7,5.7,0,0,0,5.065,5.065,94.573,94.573,0,0,0,20.111,0,5.7,5.7,0,0,0,5.065-5.065q.035-.325.067-.649Zm0,0" transform="translate(-7.203 -384.742)" fill="url(#linear-gradient-3)"/>
      <path id="Path_11151" data-name="Path 11151" d="M120.051,117.078a94.664,94.664,0,0,0,.533-10.807l-7.157-7.157a5.126,5.126,0,0,0-3.735-1.713c-3.156-.114-6.322-.108-9.479,0a5.065,5.065,0,0,0-4.925,4.442c-.083.457-.133.92-.2,1.381v7.593c.036.246.089.491.106.738a5.52,5.52,0,0,0,1.789,3.837l7.284,7.283a94.662,94.662,0,0,0,10.718-.534,5.7,5.7,0,0,0,5.065-5.065Zm0,0" transform="translate(-89.275 -91.366)" fill="url(#linear-gradient-4)"/>
      <path id="Path_11152" data-name="Path 11152" d="M149.309,144.725a5.7,5.7,0,0,1-5.065,5.065,94.714,94.714,0,0,1-10.718.534l-7.273-7.273a5.1,5.1,0,0,0,3.217,1.235c3.156.119,6.323.115,9.479,0a5.072,5.072,0,0,0,5.009-5.07c.1-3.031.1-6.069,0-9.1a5.283,5.283,0,0,0-1.269-3.352l7.153,7.153a94.827,94.827,0,0,1-.533,10.807Zm0,0" transform="translate(-118.533 -119.013)" fill="url(#linear-gradient-5)"/>
      <path id="Path_11153" data-name="Path 11153" d="M182.7,175.617a5.015,5.015,0,1,0-7.086,7.086l11.6,11.6q.921-.08,1.842-.178a5.7,5.7,0,0,0,5.065-5.065q.1-.921.178-1.842Zm0,0" transform="translate(-163.352 -163.352)" fill="url(#linear-gradient-6)"/>
      <path id="Path_11154" data-name="Path 11154" d="M334.766,160.552l-9.339-9.339a1.192,1.192,0,1,0-1.67,1.67L334.6,163.726Q334.71,162.14,334.766,160.552Zm0,0" transform="translate(-303.514 -141.523)" fill="url(#linear-gradient-7)"/>
      <path id="Path_11155" data-name="Path 11155" d="M95.09,103.224c.065-.461.115-.924.2-1.381a5.065,5.065,0,0,1,4.925-4.442c3.157-.108,6.323-.114,9.479,0a5.072,5.072,0,0,1,5.009,5.07q.142,4.546,0,9.1a5.072,5.072,0,0,1-5.009,5.07c-3.156.114-6.323.117-9.479,0a5.16,5.16,0,0,1-5.018-5.084c-.016-.247-.07-.492-.106-.738v-7.592Zm9.844,11.724c1.444,0,2.89.043,4.333-.01a3.524,3.524,0,0,0,3.706-3.693q.1-4.223,0-8.45a3.5,3.5,0,0,0-3.706-3.688q-4.3-.091-8.611,0a3.481,3.481,0,0,0-3.7,3.635q-.116,4.277,0,8.558a3.5,3.5,0,0,0,3.7,3.639c1.424.053,2.852.01,4.278.01Zm0,0" transform="translate(-89.275 -91.365)" fill="url(#linear-gradient-8)"/>
      <g id="Group_5071" data-name="Group 5071" transform="translate(5.815 5.952)">
        <path id="Path_11156" data-name="Path 11156" d="M95.09,103.224c.065-.461.115-.924.2-1.381a5.065,5.065,0,0,1,4.925-4.442c3.157-.108,6.323-.114,9.479,0a5.072,5.072,0,0,1,5.009,5.07q.142,4.546,0,9.1a5.072,5.072,0,0,1-5.009,5.07c-3.156.114-6.323.117-9.479,0a5.16,5.16,0,0,1-5.018-5.084c-.016-.247-.07-.492-.106-.738v-7.592Zm9.844,11.724c1.444,0,2.89.043,4.333-.01a3.524,3.524,0,0,0,3.706-3.693q.1-4.223,0-8.45a3.5,3.5,0,0,0-3.706-3.688q-4.3-.091-8.611,0a3.481,3.481,0,0,0-3.7,3.635q-.116,4.277,0,8.558a3.5,3.5,0,0,0,3.7,3.639c1.424.053,2.852.01,4.278.01Zm0,0" transform="translate(-95.09 -97.317)" fill="#fff"/>
        <path id="Path_11157" data-name="Path 11157" d="M179.008,174a5.015,5.015,0,1,0,5.015,5.015A5.015,5.015,0,0,0,179.008,174Zm0,8.3a3.289,3.289,0,1,1,3.289-3.289A3.289,3.289,0,0,1,179.008,182.3Zm0,0" transform="translate(-169.167 -169.306)" fill="#fff"/>
        <path id="Path_11158" data-name="Path 11158" d="M325.672,151.936a1.193,1.193,0,1,1-1.193-1.193A1.193,1.193,0,0,1,325.672,151.936Zm0,0" transform="translate(-309.329 -147.475)" fill="#fff"/>
      </g>
    </g>
  </g>
</svg>
