<svg xmlns="http://www.w3.org/2000/svg" xmlns:xlink="http://www.w3.org/1999/xlink" width="283" height="48" viewBox="0 0 283 48">
  <defs>
    <linearGradient id="linear-gradient" x1="0.008" y1="0.5" x2="1" y2="0.5" gradientUnits="objectBoundingBox">
      <stop offset="0" stop-color="#a9e2fd"/>
      <stop offset="1" stop-color="#8ab1f2"/>
    </linearGradient>
    <radialGradient id="radial-gradient" cx="0.205" cy="0.874" r="1.103" gradientTransform="translate(0)" gradientUnits="objectBoundingBox">
      <stop offset="0" stop-color="#fae100"/>
      <stop offset="0.054" stop-color="#fadc04"/>
      <stop offset="0.117" stop-color="#fbce0e"/>
      <stop offset="0.183" stop-color="#fcb720"/>
      <stop offset="0.251" stop-color="#fe9838"/>
      <stop offset="0.305" stop-color="#ff7950"/>
      <stop offset="0.492" stop-color="#ff1c74"/>
      <stop offset="1" stop-color="#6c1cd1"/>
    </radialGradient>
    <linearGradient id="linear-gradient-2" x1="0.816" y1="0.182" x2="0.172" y2="0.835" gradientUnits="objectBoundingBox">
      <stop offset="0" stop-color="#833ab4"/>
      <stop offset="0.092" stop-color="#9c3495"/>
      <stop offset="0.293" stop-color="#dc2546"/>
      <stop offset="0.392" stop-color="#fd1d1d"/>
      <stop offset="0.559" stop-color="#fc6831"/>
      <stop offset="0.689" stop-color="#fc9b40"/>
      <stop offset="0.752" stop-color="#fcaf45"/>
      <stop offset="0.781" stop-color="#fdb750"/>
      <stop offset="0.866" stop-color="#fecb6a"/>
      <stop offset="0.942" stop-color="#ffd87a"/>
      <stop offset="1" stop-color="#ffdc80"/>
    </linearGradient>
  </defs>
  <rect id="Rectangle_4" data-name="Rectangle 4" width="283" height="48" rx="24" fill="url(#linear-gradient)"/>
  <text id="Go_to_Profile" data-name="Go to Profile" transform="translate(152 30)" fill="#fff" font-size="18" font-family="Nunito-SemiBold, Nunito" font-weight="600"><tspan x="-50.859" y="0">Go to Profile</tspan></text>
  <g id="instagram-sketched" transform="translate(20 8)">
    <path id="Path_11148" data-name="Path 11148" d="M30.776,5.6A5.7,5.7,0,0,0,25.712.536,94.577,94.577,0,0,0,5.6.536,5.7,5.7,0,0,0,.536,5.6a94.577,94.577,0,0,0,0,20.111A5.7,5.7,0,0,0,5.6,30.777a94.579,94.579,0,0,0,20.112,0,5.7,5.7,0,0,0,5.065-5.065,94.576,94.576,0,0,0,0-20.111Zm0,0" transform="translate(0 0)" fill="url(#radial-gradient)"/>
    <path id="Path_11155" data-name="Path 11155" d="M95.09,103.224c.065-.461.115-.924.2-1.381a5.065,5.065,0,0,1,4.925-4.442c3.157-.108,6.323-.114,9.479,0a5.072,5.072,0,0,1,5.009,5.07q.142,4.546,0,9.1a5.072,5.072,0,0,1-5.009,5.07c-3.156.114-6.323.117-9.479,0a5.16,5.16,0,0,1-5.018-5.084c-.016-.247-.07-.492-.106-.738v-7.592Zm9.844,11.724c1.444,0,2.89.043,4.333-.01a3.524,3.524,0,0,0,3.706-3.693q.1-4.223,0-8.45a3.5,3.5,0,0,0-3.706-3.688q-4.3-.091-8.611,0a3.481,3.481,0,0,0-3.7,3.635q-.116,4.277,0,8.558a3.5,3.5,0,0,0,3.7,3.639c1.424.053,2.852.01,4.278.01Zm0,0" transform="translate(-89.275 -91.365)" fill="url(#linear-gradient-2)"/>
    <g id="Group_5071" data-name="Group 5071" transform="translate(5.815 5.952)">
      <path id="Path_11156" data-name="Path 11156" d="M95.09,103.224c.065-.461.115-.924.2-1.381a5.065,5.065,0,0,1,4.925-4.442c3.157-.108,6.323-.114,9.479,0a5.072,5.072,0,0,1,5.009,5.07q.142,4.546,0,9.1a5.072,5.072,0,0,1-5.009,5.07c-3.156.114-6.323.117-9.479,0a5.16,5.16,0,0,1-5.018-5.084c-.016-.247-.07-.492-.106-.738v-7.592Zm9.844,11.724c1.444,0,2.89.043,4.333-.01a3.524,3.524,0,0,0,3.706-3.693q.1-4.223,0-8.45a3.5,3.5,0,0,0-3.706-3.688q-4.3-.091-8.611,0a3.481,3.481,0,0,0-3.7,3.635q-.116,4.277,0,8.558a3.5,3.5,0,0,0,3.7,3.639c1.424.053,2.852.01,4.278.01Zm0,0" transform="translate(-95.09 -97.317)" fill="#fff"/>
      <path id="Path_11157" data-name="Path 11157" d="M179.008,174a5.015,5.015,0,1,0,5.015,5.015A5.015,5.015,0,0,0,179.008,174Zm0,8.3a3.289,3.289,0,1,1,3.289-3.289A3.289,3.289,0,0,1,179.008,182.3Zm0,0" transform="translate(-169.167 -169.306)" fill="#fff"/>
      <path id="Path_11158" data-name="Path 11158" d="M325.672,151.936a1.193,1.193,0,1,1-1.193-1.193A1.193,1.193,0,0,1,325.672,151.936Zm0,0" transform="translate(-309.329 -147.475)" fill="#fff"/>
    </g>
  </g>
</svg>
