<svg xmlns="http://www.w3.org/2000/svg" xmlns:xlink="http://www.w3.org/1999/xlink" width="31.5" height="31.5" viewBox="0 0 31.5 31.5"><defs><radialGradient id="a" cx="0.205" cy="0.874" r="1.103" gradientTransform="translate(0)" gradientUnits="objectBoundingBox"><stop offset="0" stop-color="#fae100"/><stop offset="0.054" stop-color="#fadc04"/><stop offset="0.117" stop-color="#fbce0e"/><stop offset="0.183" stop-color="#fcb720"/><stop offset="0.251" stop-color="#fe9838"/><stop offset="0.305" stop-color="#ff7950"/><stop offset="0.492" stop-color="#ff1c74"/><stop offset="1" stop-color="#6c1cd1"/></radialGradient><linearGradient id="b" x1="0.816" y1="0.182" x2="0.172" y2="0.835" gradientUnits="objectBoundingBox"><stop offset="0" stop-color="#833ab4"/><stop offset="0.092" stop-color="#9c3495"/><stop offset="0.293" stop-color="#dc2546"/><stop offset="0.392" stop-color="#fd1d1d"/><stop offset="0.559" stop-color="#fc6831"/><stop offset="0.689" stop-color="#fc9b40"/><stop offset="0.752" stop-color="#fcaf45"/><stop offset="0.781" stop-color="#fdb750"/><stop offset="0.866" stop-color="#fecb6a"/><stop offset="0.942" stop-color="#ffd87a"/><stop offset="1" stop-color="#ffdc80"/></linearGradient></defs><g transform="translate(-25.999 -12)"><g transform="translate(26 12)"><path d="M30.96,5.634A5.735,5.735,0,0,0,25.865.539a95.141,95.141,0,0,0-20.231,0,5.736,5.736,0,0,0-5.1,5.095,95.141,95.141,0,0,0,0,20.231,5.736,5.736,0,0,0,5.095,5.1,95.144,95.144,0,0,0,20.232,0,5.735,5.735,0,0,0,5.095-5.1,95.141,95.141,0,0,0,0-20.231Zm0,0" transform="translate(0 0)" fill="url(#a)"/><path d="M95.09,103.259c.066-.463.116-.929.2-1.389a5.1,5.1,0,0,1,4.955-4.469c3.175-.109,6.36-.115,9.535,0a5.1,5.1,0,0,1,5.039,5.1q.143,4.574,0,9.155a5.1,5.1,0,0,1-5.039,5.1c-3.175.115-6.361.118-9.535,0A5.191,5.191,0,0,1,95.2,111.64c-.017-.249-.07-.5-.106-.743v-7.638Zm9.9,11.794c1.453,0,2.907.044,4.359-.01a3.545,3.545,0,0,0,3.728-3.715q.1-4.248,0-8.5a3.523,3.523,0,0,0-3.728-3.71q-4.33-.092-8.663,0a3.5,3.5,0,0,0-3.722,3.656q-.117,4.3,0,8.609a3.525,3.525,0,0,0,3.722,3.661c1.433.053,2.869.01,4.3.01Zm0,0" transform="translate(-89.24 -91.33)" fill="url(#b)"/><g transform="translate(5.85 5.987)"><path d="M95.09,103.259c.066-.463.116-.929.2-1.389a5.1,5.1,0,0,1,4.955-4.469c3.175-.109,6.36-.115,9.535,0a5.1,5.1,0,0,1,5.039,5.1q.143,4.574,0,9.155a5.1,5.1,0,0,1-5.039,5.1c-3.175.115-6.361.118-9.535,0A5.191,5.191,0,0,1,95.2,111.64c-.017-.249-.07-.5-.106-.743v-7.638Zm9.9,11.794c1.453,0,2.907.044,4.359-.01a3.545,3.545,0,0,0,3.728-3.715q.1-4.248,0-8.5a3.523,3.523,0,0,0-3.728-3.71q-4.33-.092-8.663,0a3.5,3.5,0,0,0-3.722,3.656q-.117,4.3,0,8.609a3.525,3.525,0,0,0,3.722,3.661c1.433.053,2.869.01,4.3.01Zm0,0" transform="translate(-95.09 -97.317)" fill="#fff"/><path d="M179.038,174a5.045,5.045,0,1,0,5.045,5.045A5.045,5.045,0,0,0,179.038,174Zm0,8.353a3.308,3.308,0,1,1,3.308-3.308A3.308,3.308,0,0,1,179.038,182.349Zm0,0" transform="translate(-169.138 -169.278)" fill="#fff"/><path d="M325.686,151.943a1.2,1.2,0,1,1-1.2-1.2A1.2,1.2,0,0,1,325.686,151.943Zm0,0" transform="translate(-309.246 -147.455)" fill="#fff"/></g></g></g></svg>