<svg xmlns="http://www.w3.org/2000/svg" xmlns:xlink="http://www.w3.org/1999/xlink" width="31.313" height="31.313" viewBox="0 0 31.313 31.313"><defs><radialGradient id="a" cx="0.205" cy="0.874" r="1.103" gradientTransform="translate(0)" gradientUnits="objectBoundingBox"><stop offset="0" stop-color="#fae100"/><stop offset="0.054" stop-color="#fadc04"/><stop offset="0.117" stop-color="#fbce0e"/><stop offset="0.183" stop-color="#fcb720"/><stop offset="0.251" stop-color="#fe9838"/><stop offset="0.305" stop-color="#ff7950"/><stop offset="0.492" stop-color="#ff1c74"/><stop offset="1" stop-color="#6c1cd1"/></radialGradient></defs><g transform="translate(13.001 -2)"><path d="M30.776,5.6A5.7,5.7,0,0,0,25.712.536,94.577,94.577,0,0,0,5.6.536,5.7,5.7,0,0,0,.536,5.6a94.577,94.577,0,0,0,0,20.111A5.7,5.7,0,0,0,5.6,30.777a94.579,94.579,0,0,0,20.112,0,5.7,5.7,0,0,0,5.065-5.065,94.576,94.576,0,0,0,0-20.111Zm0,0" transform="translate(-13 2)" fill="url(#a)"/><path d="M95.09,103.224c.065-.461.115-.924.2-1.381a5.065,5.065,0,0,1,4.925-4.442c3.157-.108,6.323-.114,9.479,0a5.072,5.072,0,0,1,5.009,5.07q.142,4.546,0,9.1a5.072,5.072,0,0,1-5.009,5.07c-3.156.114-6.323.117-9.479,0a5.16,5.16,0,0,1-5.018-5.084c-.016-.247-.07-.492-.106-.738v-7.592Zm9.844,11.724c1.444,0,2.89.043,4.333-.01a3.524,3.524,0,0,0,3.706-3.693q.1-4.223,0-8.45a3.5,3.5,0,0,0-3.706-3.688q-4.3-.091-8.611,0a3.481,3.481,0,0,0-3.7,3.635q-.116,4.277,0,8.558a3.5,3.5,0,0,0,3.7,3.639c1.424.053,2.852.01,4.278.01Zm0,0" transform="translate(-102.275 -89.365)" fill="#fff"/><path d="M179.008,174a5.015,5.015,0,1,0,5.015,5.015A5.015,5.015,0,0,0,179.008,174Zm0,8.3a3.289,3.289,0,1,1,3.289-3.289A3.289,3.289,0,0,1,179.008,182.3Zm0,0" transform="translate(-176.352 -161.355)" fill="#fff"/><path d="M325.672,151.936a1.193,1.193,0,1,1-1.193-1.193A1.193,1.193,0,0,1,325.672,151.936Zm0,0" transform="translate(-316.514 -139.523)" fill="#fff"/></g></svg>