<svg id="btn" xmlns="http://www.w3.org/2000/svg" xmlns:xlink="http://www.w3.org/1999/xlink" width="283" height="48" viewBox="0 0 283 48">
  <defs>
    <linearGradient id="linear-gradient" x1="0.008" y1="0.5" x2="1" y2="0.5" gradientUnits="objectBoundingBox">
      <stop offset="0" stop-color="#a9e2fd"/>
      <stop offset="1" stop-color="#8ab1f2"/>
    </linearGradient>
    <linearGradient id="linear-gradient-2" x1="0.332" y1="0.141" x2="0.585" y2="0.682" gradientUnits="objectBoundingBox">
      <stop offset="0" stop-color="#0077b5"/>
      <stop offset="1" stop-color="#0066b2"/>
    </linearGradient>
  </defs>
  <rect id="Rectangle_4" data-name="Rectangle 4" width="283" height="48" rx="24" fill="url(#linear-gradient)"/>
  <text id="Go_to_Profile" data-name="Go to Profile" transform="translate(152 30)" fill="#fff" font-size="18" font-family="Nunito-SemiBold, Nunito" font-weight="600"><tspan x="-50.859" y="0">Go to Profile</tspan></text>
  <g id="linkedin" transform="translate(20 8.001)">
    <path id="Path_11159" data-name="Path 11159" d="M25.648,30.7a94.343,94.343,0,0,1-20.061,0A5.687,5.687,0,0,1,.535,25.647a94.341,94.341,0,0,1,0-20.061A5.687,5.687,0,0,1,5.587.534a94.341,94.341,0,0,1,20.061,0A5.687,5.687,0,0,1,30.7,5.586a94.341,94.341,0,0,1,0,20.061A5.687,5.687,0,0,1,25.648,30.7Zm0,0" fill="url(#linear-gradient-2)"/>
    <g id="Group_5072" data-name="Group 5072" transform="translate(5.789 5.936)">
      <path id="Path_11165" data-name="Path 11165" d="M101.355,204.5h4.136v12.822h-4.136Zm0,0" transform="translate(-100.961 -197.965)" fill="#fff"/>
      <path id="Path_11166" data-name="Path 11166" d="M218.341,199.98a5.368,5.368,0,0,0-4.7,2.2v-1.921h-3.811v12.822h4.136v-6.441c0-1.861.857-3.309,2.482-3.309s1.891,1.8,1.891,4.018v5.731h4.136v-8.962a4.136,4.136,0,0,0-4.136-4.136Zm0,0" transform="translate(-202.82 -193.717)" fill="#fff"/>
      <path id="Path_11167" data-name="Path 11167" d="M99.818,99.779a2.462,2.462,0,1,1-2.462-2.462A2.462,2.462,0,0,1,99.818,99.779Zm0,0" transform="translate(-94.894 -97.317)" fill="#fff"/>
    </g>
  </g>
</svg>
