<svg xmlns="http://www.w3.org/2000/svg" xmlns:xlink="http://www.w3.org/1999/xlink" width="313" height="78" viewBox="0 0 313 78">
  <defs>
    <linearGradient id="linear-gradient" x1="0.008" y1="0.5" x2="1" y2="0.5" gradientUnits="objectBoundingBox">
      <stop offset="0" stop-color="#a9e2fd"/>
      <stop offset="1" stop-color="#8ab1f2"/>
    </linearGradient>
    <filter id="Rectangle_4" x="0" y="0" width="313" height="78" filterUnits="userSpaceOnUse">
      <feOffset dy="6" input="SourceAlpha"/>
      <feGaussianBlur stdDeviation="5" result="blur"/>
      <feFlood flood-color="#91bcf5" flood-opacity="0.569"/>
      <feComposite operator="in" in2="blur"/>
      <feComposite in="SourceGraphic"/>
    </filter>
    <linearGradient id="linear-gradient-2" x1="0.332" y1="0.141" x2="0.585" y2="0.682" gradientUnits="objectBoundingBox">
      <stop offset="0" stop-color="#0077b5"/>
      <stop offset="1" stop-color="#0066b2"/>
    </linearGradient>
    <linearGradient id="linear-gradient-3" x1="0.738" y1="0.628" x2="-0.899" y2="-0.25" gradientUnits="objectBoundingBox">
      <stop offset="0" stop-color="#0066b2" stop-opacity="0"/>
      <stop offset="1" stop-color="#07485e"/>
    </linearGradient>
    <linearGradient id="linear-gradient-4" x1="0.5" y1="0.059" x2="0.5" y2="1.106" xlink:href="#linear-gradient-3"/>
    <linearGradient id="linear-gradient-5" x1="0.438" y1="0.439" x2="-0.037" y2="-0.037" xlink:href="#linear-gradient-3"/>
    <linearGradient id="linear-gradient-6" x1="0.795" y1="0.804" x2="-0.29" y2="0.216" xlink:href="#linear-gradient-3"/>
    <linearGradient id="linear-gradient-7" x1="0.892" y1="0.936" x2="-0.003" y2="0.073" xlink:href="#linear-gradient-3"/>
  </defs>
  <g id="btn" transform="translate(15 9)">
    <g transform="matrix(1, 0, 0, 1, -15, -9)" filter="url(#Rectangle_4)">
      <rect id="Rectangle_4-2" data-name="Rectangle 4" width="283" height="48" rx="24" transform="translate(15 9)" fill="url(#linear-gradient)"/>
    </g>
    <text id="Go_To_Profile" data-name="Go To Profile" transform="translate(152 30)" fill="#fff" font-size="18" font-family="Nunito-SemiBold, Nunito" font-weight="600"><tspan x="-52.434" y="0">Go To Profile</tspan></text>
    <g id="linkedin" transform="translate(20 8.001)">
      <path id="Path_11159" data-name="Path 11159" d="M25.648,30.7a94.343,94.343,0,0,1-20.061,0A5.687,5.687,0,0,1,.535,25.647a94.341,94.341,0,0,1,0-20.061A5.687,5.687,0,0,1,5.587.534a94.341,94.341,0,0,1,20.061,0A5.687,5.687,0,0,1,30.7,5.586a94.341,94.341,0,0,1,0,20.061A5.687,5.687,0,0,1,25.648,30.7Zm0,0" fill="url(#linear-gradient-2)"/>
      <path id="Path_11160" data-name="Path 11160" d="M56.076,33.792a5.047,5.047,0,0,0-4.483-4.483,83.748,83.748,0,0,0-17.8,0,5.047,5.047,0,0,0-4.483,4.483,83.746,83.746,0,0,0,0,17.8,5.047,5.047,0,0,0,4.483,4.483,83.715,83.715,0,0,0,17.8,0,5.046,5.046,0,0,0,4.483-4.483,83.714,83.714,0,0,0,0-17.8Zm0,0" transform="translate(-27.075 -27.076)" fill="url(#linear-gradient-3)"/>
      <path id="Path_11161" data-name="Path 11161" d="M7.672,409.8q.032.324.067.648a5.687,5.687,0,0,0,5.052,5.052,94.343,94.343,0,0,0,20.061,0,5.687,5.687,0,0,0,5.052-5.052q.035-.324.067-.648Zm0,0" transform="translate(-7.204 -384.805)" fill="url(#linear-gradient-4)"/>
      <path id="Path_11162" data-name="Path 11162" d="M119.469,118.44,99.313,98.283a2.462,2.462,0,1,0-3.451,3.451l20.087,20.087a5.692,5.692,0,0,0,3.521-3.381Zm0,0" transform="translate(-89.106 -91.38)" fill="url(#linear-gradient-5)"/>
      <path id="Path_11163" data-name="Path 11163" d="M105.487,204.5h-4.136v12.822l5.869,5.869a94.349,94.349,0,0,0,13.6-.467,5.671,5.671,0,0,0,2.192-.7Zm0,0" transform="translate(-95.168 -192.029)" fill="url(#linear-gradient-6)"/>
      <path id="Path_11164" data-name="Path 11164" d="M221.4,201.33a4.125,4.125,0,0,0-3.057-1.35,5.821,5.821,0,0,0-3.887,1.3l-.81-1.021h-3.811v12.822l5.887,5.887q3.482-.113,6.961-.484a5.687,5.687,0,0,0,5.052-5.052q.285-2.672.418-5.347Zm0,0" transform="translate(-197.031 -187.781)" fill="url(#linear-gradient-7)"/>
      <g id="Group_5072" data-name="Group 5072" transform="translate(5.789 5.936)">
        <path id="Path_11165" data-name="Path 11165" d="M101.355,204.5h4.136v12.822h-4.136Zm0,0" transform="translate(-100.961 -197.965)" fill="#fff"/>
        <path id="Path_11166" data-name="Path 11166" d="M218.341,199.98a5.368,5.368,0,0,0-4.7,2.2v-1.921h-3.811v12.822h4.136v-6.441c0-1.861.857-3.309,2.482-3.309s1.891,1.8,1.891,4.018v5.731h4.136v-8.962a4.136,4.136,0,0,0-4.136-4.136Zm0,0" transform="translate(-202.82 -193.717)" fill="#fff"/>
        <path id="Path_11167" data-name="Path 11167" d="M99.818,99.779a2.462,2.462,0,1,1-2.462-2.462A2.462,2.462,0,0,1,99.818,99.779Zm0,0" transform="translate(-94.894 -97.317)" fill="#fff"/>
      </g>
    </g>
  </g>
</svg>
