<svg xmlns="http://www.w3.org/2000/svg" xmlns:xlink="http://www.w3.org/1999/xlink" width="313" height="78" viewBox="0 0 313 78"><defs><linearGradient id="a" x1="0.008" y1="0.5" x2="1" y2="0.5" gradientUnits="objectBoundingBox"><stop offset="0" stop-color="#a9e2fd"/><stop offset="1" stop-color="#8ab1f2"/></linearGradient><filter id="b" x="0" y="0" width="313" height="78" filterUnits="userSpaceOnUse"><feOffset dy="6" input="SourceAlpha"/><feGaussianBlur stdDeviation="5" result="c"/><feFlood flood-color="#91bcf5" flood-opacity="0.569"/><feComposite operator="in" in2="c"/><feComposite in="SourceGraphic"/></filter><linearGradient id="d" x1="0.332" y1="0.141" x2="0.585" y2="0.682" gradientUnits="objectBoundingBox"><stop offset="0" stop-color="#0077b5"/><stop offset="1" stop-color="#0066b2"/></linearGradient><linearGradient id="e" x1="0.738" y1="0.628" x2="-0.899" y2="-0.25" gradientUnits="objectBoundingBox"><stop offset="0" stop-color="#0066b2" stop-opacity="0"/><stop offset="1" stop-color="#07485e"/></linearGradient></defs><g transform="translate(15 9)"><g transform="matrix(1, 0, 0, 1, -15, -9)" filter="url(#b)"><rect width="283" height="48" rx="24" transform="translate(15 9)" fill="url(#a)"/></g><text transform="translate(152 30)" fill="#fff" font-size="18" font-family="Nunito-SemiBold, Nunito" font-weight="600"><tspan x="-50.4" y="0">Go to profile</tspan></text><path d="M25.648,30.7a94.343,94.343,0,0,1-20.061,0A5.687,5.687,0,0,1,.535,25.647a94.341,94.341,0,0,1,0-20.061A5.687,5.687,0,0,1,5.587.534a94.341,94.341,0,0,1,20.061,0A5.687,5.687,0,0,1,30.7,5.586a94.341,94.341,0,0,1,0,20.061A5.687,5.687,0,0,1,25.648,30.7Zm0,0" transform="translate(20 8)" fill="url(#d)"/><path d="M56.076,33.792a5.047,5.047,0,0,0-4.483-4.483,83.748,83.748,0,0,0-17.8,0,5.047,5.047,0,0,0-4.483,4.483,83.746,83.746,0,0,0,0,17.8,5.047,5.047,0,0,0,4.483,4.483,83.715,83.715,0,0,0,17.8,0,5.046,5.046,0,0,0,4.483-4.483,83.714,83.714,0,0,0,0-17.8Zm0,0" transform="translate(-7.074 -19.075)" fill="url(#e)"/><path d="M101.355,204.5h4.136v12.822h-4.136Zm0,0" transform="translate(-75.172 -184.028)" fill="#fff"/><path d="M218.341,199.98a5.368,5.368,0,0,0-4.7,2.2v-1.921h-3.811v12.822h4.136v-6.441c0-1.861.857-3.309,2.482-3.309s1.891,1.8,1.891,4.018v5.731h4.136v-8.962a4.136,4.136,0,0,0-4.136-4.136Zm0,0" transform="translate(-177.031 -179.78)" fill="#fff"/><path d="M99.818,99.779a2.462,2.462,0,1,1-2.462-2.462A2.462,2.462,0,0,1,99.818,99.779Zm0,0" transform="translate(-69.105 -83.38)" fill="#fff"/></g></svg>