<svg xmlns="http://www.w3.org/2000/svg" xmlns:xlink="http://www.w3.org/1999/xlink" width="31.235" height="31.235" viewBox="0 0 31.235 31.235"><defs><linearGradient id="a" x1="0.332" y1="0.141" x2="0.585" y2="0.682" gradientUnits="objectBoundingBox"><stop offset="0" stop-color="#0077b5"/><stop offset="1" stop-color="#0066b2"/></linearGradient><linearGradient id="b" x1="0.738" y1="0.628" x2="-0.899" y2="-0.25" gradientUnits="objectBoundingBox"><stop offset="0" stop-color="#0066b2" stop-opacity="0"/><stop offset="1" stop-color="#07485e"/></linearGradient></defs><g transform="translate(0 -1.999)"><path d="M25.648,30.7a94.343,94.343,0,0,1-20.061,0A5.687,5.687,0,0,1,.535,25.647a94.341,94.341,0,0,1,0-20.061A5.687,5.687,0,0,1,5.587.534a94.341,94.341,0,0,1,20.061,0A5.687,5.687,0,0,1,30.7,5.586a94.341,94.341,0,0,1,0,20.061A5.687,5.687,0,0,1,25.648,30.7Zm0,0" transform="translate(0 2)" fill="url(#a)"/><path d="M56.076,33.792a5.047,5.047,0,0,0-4.483-4.483,83.748,83.748,0,0,0-17.8,0,5.047,5.047,0,0,0-4.483,4.483,83.746,83.746,0,0,0,0,17.8,5.047,5.047,0,0,0,4.483,4.483,83.715,83.715,0,0,0,17.8,0,5.046,5.046,0,0,0,4.483-4.483,83.714,83.714,0,0,0,0-17.8Zm0,0" transform="translate(-27.074 -25.076)" fill="url(#b)"/><g transform="translate(5.789 7.937)"><path d="M101.355,204.5h4.136v12.822h-4.136Zm0,0" transform="translate(-100.961 -197.965)" fill="#fff"/><path d="M218.341,199.98a5.368,5.368,0,0,0-4.7,2.2v-1.921h-3.811v12.822h4.136v-6.441c0-1.861.857-3.309,2.482-3.309s1.891,1.8,1.891,4.018v5.731h4.136v-8.962a4.136,4.136,0,0,0-4.136-4.136Zm0,0" transform="translate(-202.82 -193.717)" fill="#fff"/><path d="M99.818,99.779a2.462,2.462,0,1,1-2.462-2.462A2.462,2.462,0,0,1,99.818,99.779Zm0,0" transform="translate(-94.894 -97.317)" fill="#fff"/></g></g></svg>