<svg xmlns="http://www.w3.org/2000/svg" xmlns:xlink="http://www.w3.org/1999/xlink" width="31.5" height="31.5" viewBox="0 0 31.5 31.5"><defs><linearGradient id="a" x1="0.332" y1="0.141" x2="0.585" y2="0.682" gradientUnits="objectBoundingBox"><stop offset="0" stop-color="#0077b5"/><stop offset="1" stop-color="#0066b2"/></linearGradient></defs><g transform="translate(3 -0.999)"><g transform="translate(-3 0.999)"><path d="M25.866,30.96a95.143,95.143,0,0,1-20.232,0,5.736,5.736,0,0,1-5.095-5.1,95.141,95.141,0,0,1,0-20.231A5.736,5.736,0,0,1,5.634.539a95.141,95.141,0,0,1,20.231,0,5.736,5.736,0,0,1,5.1,5.095,95.142,95.142,0,0,1,0,20.231,5.735,5.735,0,0,1-5.095,5.1Zm0,0" transform="translate(0 0.001)" fill="url(#a)"/><g transform="translate(5.838 5.987)"><path d="M101.355,204.5h4.171v12.931h-4.171Zm0,0" transform="translate(-100.957 -197.909)" fill="#fff"/><path d="M218.413,199.98a5.414,5.414,0,0,0-4.737,2.216v-1.938h-3.844v12.931H214v-6.5c0-1.877.864-3.337,2.5-3.337s1.907,1.817,1.907,4.052v5.78h4.171v-9.038a4.171,4.171,0,0,0-4.171-4.171Zm0,0" transform="translate(-202.761 -193.664)" fill="#fff"/><path d="M99.86,99.8a2.483,2.483,0,1,1-2.483-2.483A2.483,2.483,0,0,1,99.86,99.8Zm0,0" transform="translate(-94.894 -97.317)" fill="#fff"/></g></g></g></svg>