<svg xmlns="http://www.w3.org/2000/svg" xmlns:xlink="http://www.w3.org/1999/xlink" width="37" height="37" viewBox="0 0 37 37">
  <defs>
    <linearGradient id="linear-gradient" x1="0.332" y1="0.141" x2="0.585" y2="0.682" gradientUnits="objectBoundingBox">
      <stop offset="0" stop-color="#0077b5"/>
      <stop offset="1" stop-color="#0066b2"/>
    </linearGradient>
    <linearGradient id="linear-gradient-2" x1="0.738" y1="0.628" x2="-0.899" y2="-0.25" gradientUnits="objectBoundingBox">
      <stop offset="0" stop-color="#0066b2" stop-opacity="0"/>
      <stop offset="1" stop-color="#07485e"/>
    </linearGradient>
    <linearGradient id="linear-gradient-3" x1="0.5" y1="0.059" x2="0.5" y2="1.106" xlink:href="#linear-gradient-2"/>
    <linearGradient id="linear-gradient-4" x1="0.438" y1="0.439" x2="-0.037" y2="-0.037" xlink:href="#linear-gradient-2"/>
    <linearGradient id="linear-gradient-5" x1="0.795" y1="0.804" x2="-0.29" y2="0.216" xlink:href="#linear-gradient-2"/>
    <linearGradient id="linear-gradient-6" x1="0.892" y1="0.936" x2="-0.003" y2="0.073" xlink:href="#linear-gradient-2"/>
  </defs>
  <g id="Group_5054" data-name="Group 5054" transform="translate(-304 -299.568)">
    <g id="linkedin" transform="translate(304 299.568)">
      <path id="Path_3374" data-name="Path 3374" d="M30.382,36.366a111.756,111.756,0,0,1-23.764,0A6.737,6.737,0,0,1,.633,30.381a111.753,111.753,0,0,1,0-23.764A6.737,6.737,0,0,1,6.618.633a111.754,111.754,0,0,1,23.764,0,6.737,6.737,0,0,1,5.985,5.984,111.753,111.753,0,0,1,0,23.764,6.737,6.737,0,0,1-5.985,5.985Zm0,0" transform="translate(0 0.001)" fill="url(#linear-gradient)"/>
      <path id="Path_3375" data-name="Path 3375" d="M62.053,34.879a6.154,6.154,0,0,0-5.467-5.467,102.123,102.123,0,0,0-21.707,0,6.155,6.155,0,0,0-5.467,5.467,102.118,102.118,0,0,0,0,21.707,6.154,6.154,0,0,0,5.467,5.467,102.082,102.082,0,0,0,21.707,0,6.154,6.154,0,0,0,5.467-5.467,102.08,102.08,0,0,0,0-21.707Zm0,0" transform="translate(-27.233 -27.233)" fill="url(#linear-gradient-2)"/>
      <path id="Path_3376" data-name="Path 3376" d="M7.672,409.8q.038.295.08.59c.339,2.425,2.849,4.34,6.028,4.6a147.338,147.338,0,0,0,23.934,0c3.178-.259,5.688-2.174,6.027-4.6q.041-.295.08-.59Zm0,0" transform="translate(-7.246 -378.48)" fill="url(#linear-gradient-3)"/>
      <path id="Path_3377" data-name="Path 3377" d="M117.264,116.544,98.916,98.2a2.241,2.241,0,1,0-3.141,3.141l18.284,18.284a5.182,5.182,0,0,0,3.2-3.077Zm0,0" transform="translate(-81.057 -83.344)" fill="url(#linear-gradient-4)"/>
      <path id="Path_3378" data-name="Path 3378" d="M105.116,204.5h-3.765v11.671l5.342,5.342a85.878,85.878,0,0,0,12.376-.425,5.162,5.162,0,0,0,2-.64Zm0,0" transform="translate(-87.155 -184.579)" fill="url(#linear-gradient-5)"/>
      <path id="Path_3379" data-name="Path 3379" d="M220.359,201.209a3.755,3.755,0,0,0-2.782-1.229,5.3,5.3,0,0,0-3.538,1.181l-.738-.93h-3.469V211.9l5.358,5.358q3.17-.1,6.336-.441a5.177,5.177,0,0,0,4.6-4.6q.26-2.432.38-4.867Zm0,0" transform="translate(-189.611 -180.307)" fill="url(#linear-gradient-6)"/>
      <g id="Group_5050" data-name="Group 5050" transform="translate(9.554 9.688)">
        <path id="Path_3380" data-name="Path 3380" d="M101.355,204.5h3.765v11.671h-3.765Zm0,0" transform="translate(-100.996 -198.552)" fill="#fff"/>
        <path id="Path_3381" data-name="Path 3381" d="M217.577,199.98a4.886,4.886,0,0,0-4.276,2v-1.749h-3.469V211.9H213.6V206.04c0-1.694.78-3.012,2.259-3.012s1.721,1.64,1.721,3.657V211.9h3.765v-8.158a3.765,3.765,0,0,0-3.765-3.765Zm0,0" transform="translate(-203.45 -194.279)" fill="#fff"/>
        <path id="Path_3382" data-name="Path 3382" d="M99.376,99.558a2.241,2.241,0,1,1-2.241-2.241A2.241,2.241,0,0,1,99.376,99.558Zm0,0" transform="translate(-94.894 -97.317)" fill="#fff"/>
      </g>
    </g>
  </g>
</svg>
