<svg xmlns="http://www.w3.org/2000/svg" width="477.39" height="392.548" viewBox="0 0 477.39 392.548">
  <g id="link" transform="translate(0.001 -42.421)">
    <g id="Group_6" data-name="Group 6">
      <g id="Group_5" data-name="Group 5">
        <path id="Path_14" data-name="Path 14" d="M451.209,68.647A89.462,89.462,0,0,0,387.9,42.421h0a88.987,88.987,0,0,0-63.266,26.2L209.056,184.194a89.615,89.615,0,0,0-22.869,87.518,17.067,17.067,0,0,0,32.853-9.267,55.481,55.481,0,0,1,14.148-54.118L348.763,92.768a55.338,55.338,0,0,1,78.268,78.251L311.456,286.594a55.159,55.159,0,0,1-27.682,15,17.067,17.067,0,0,0,3.532,33.775,16.88,16.88,0,0,0,3.55-.375,89.205,89.205,0,0,0,44.732-24.269L451.164,195.169A89.466,89.466,0,0,0,451.209,68.647Z" fill="#fff"/>
      </g>
    </g>
    <g id="Group_8" data-name="Group 8">
      <g id="Group_7" data-name="Group 7">
        <path id="Path_15" data-name="Path 15" d="M290.7,206.142a17.067,17.067,0,0,0-32.853,9.267A55.481,55.481,0,0,1,243.7,269.527L128.125,385.1a55.338,55.338,0,0,1-78.268-78.251L165.433,191.259a55.083,55.083,0,0,1,27.648-15,17.066,17.066,0,0,0-6.694-33.47c-.113.023-.225.046-.337.071A89.342,89.342,0,0,0,141.3,167.127L25.725,282.7A89.48,89.48,0,0,0,152.257,409.252L267.832,293.659A89.612,89.612,0,0,0,290.7,206.142Z" fill="#fff"/>
      </g>
    </g>
  </g>
</svg>
