<svg xmlns="http://www.w3.org/2000/svg" width="24.8" height="25.8" viewBox="0 0 24.8 25.8"><g transform="translate(-65.6 -525.6)"><g transform="translate(65 526)"><path d="M184.47,25H173.532a2.867,2.867,0,0,1-2.864-2.865V17.448a.781.781,0,0,1,1.563,0v4.688a1.3,1.3,0,0,0,1.3,1.3H184.47a1.3,1.3,0,0,0,1.3-1.3V2.865a1.3,1.3,0,0,0-1.3-1.3H173.532a1.3,1.3,0,0,0-1.3,1.3V7.552a.781.781,0,1,1-1.562,0V2.865A2.867,2.867,0,0,1,173.532,0H184.47a2.867,2.867,0,0,1,2.865,2.865V22.135A2.867,2.867,0,0,1,184.47,25Zm0,0" transform="translate(-162.335)" fill="#fff" stroke="#fff" stroke-width="0.8"/><path d="M15.885,241.563H.781a.781.781,0,0,1,0-1.562h15.1a.781.781,0,0,1,0,1.563Zm0,0" transform="translate(1 -228.281)" fill="#fff" stroke="#fff" stroke-width="0.8"/><path d="M224.785,164.527a.782.782,0,0,1-.552-1.334l3.615-3.614-3.615-3.615a.782.782,0,0,1,1.105-1.105l4.167,4.167a.781.781,0,0,1,0,1.105l-4.167,4.167A.775.775,0,0,1,224.785,164.527Zm0,0" transform="translate(-212.066 -147.079)" fill="#fff" stroke="#fff" stroke-width="0.8"/></g></g></svg>