<svg xmlns="http://www.w3.org/2000/svg" xmlns:xlink="http://www.w3.org/1999/xlink" width="72" height="72" viewBox="0 0 72 72"><defs><linearGradient id="a" x1="1" y1="0.116" x2="0.169" y2="0.925" gradientUnits="objectBoundingBox"><stop offset="0" stop-color="#a9e2fd"/><stop offset="1" stop-color="#8ab1f2"/></linearGradient></defs><g transform="translate(0 -1)"><circle cx="36" cy="36" r="36" transform="translate(0 1)" fill="url(#a)"/><path d="M1.6,33.307H4.749l4.1,5.173V33.307h3.194v9.37H8.851L4.774,37.531v5.145H1.6v-9.37Zm.171-12.246A9.95,9.95,0,0,1,.025,15.839a9.5,9.5,0,0,1,1.009-5.333l.838-1.4,1.432.983,13.62,9.363a12.893,12.893,0,0,0,.562-5.169,12.225,12.225,0,0,0-2.722-6.267l2.58-1.29a13.678,13.678,0,0,1,3.137,7.345,15.416,15.416,0,0,1-1.424,8.007l-.749,1.614L16.725,22.6,3.138,13.267A9.453,9.453,0,0,0,3.02,15.69a7.632,7.632,0,0,0,1.245,3.953l-2.5,1.419Zm25.922,8.857c3.361-4.5,5.331-10.231,5.327-14.686A23.107,23.107,0,0,0,28.359,1.276L30.98,0a25.375,25.375,0,0,1,5.03,15.233c0,4.9-2.234,11.3-5.937,16.254l-2.385-1.569ZM21.47,25.76a17.309,17.309,0,0,0,3.8-10.67A16.693,16.693,0,0,0,21.551,4.654l2.6-1.29A18.838,18.838,0,0,1,28.266,15.08a20.037,20.037,0,0,1-4.423,12.256L21.47,25.76Zm-7.646,7.547h8.354v2.015H17.214v1.635h4.248v1.9H17.214v3.82h-3.39V33.307ZM30.8,38.842l2.962.767a4.384,4.384,0,0,1-.94,1.781,4.023,4.023,0,0,1-1.6,1.081,6.906,6.906,0,0,1-2.421.363,8.171,8.171,0,0,1-2.918-.443,4.435,4.435,0,0,1-1.949-1.562,4.685,4.685,0,0,1-.822-2.858A4.465,4.465,0,0,1,24.563,34.4a6.084,6.084,0,0,1,4.09-1.248,6.281,6.281,0,0,1,3.251.715,4.277,4.277,0,0,1,1.758,2.2l-2.979.565a2.054,2.054,0,0,0-.33-.62,1.935,1.935,0,0,0-.7-.509,2.308,2.308,0,0,0-.92-.178,2.113,2.113,0,0,0-1.766.788,2.958,2.958,0,0,0-.464,1.84,3.1,3.1,0,0,0,.553,2.133,2.454,2.454,0,0,0,3.019.108,2.7,2.7,0,0,0,.72-1.349Z" transform="translate(17.99 16.047)" fill="#fff"/></g></svg>