<svg xmlns="http://www.w3.org/2000/svg" xmlns:xlink="http://www.w3.org/1999/xlink" width="171.777" height="128.8" viewBox="0 0 171.777 128.8">
  <defs>
    <linearGradient id="linear-gradient" x1="0.5" x2="0.5" y2="1" gradientUnits="objectBoundingBox">
      <stop offset="0" stop-color="#a9e2fd"/>
      <stop offset="1" stop-color="#8ab1f2"/>
    </linearGradient>
  </defs>
  <g id="Group_5067" data-name="Group 5067" transform="translate(-56.111 -136.803)">
    <ellipse id="Ellipse_395" data-name="Ellipse 395" cx="85.889" cy="5.016" rx="85.889" ry="5.016" transform="translate(56.111 255.571)" fill="#f0f6ff"/>
    <g id="Group_5062" data-name="Group 5062" transform="translate(79.434 136.803)">
      <path id="Path_3399" data-name="Path 3399" d="M212.818,148.667c.03,5.249-3.733,5.2-3.655,3.564s-.855-5.53,0-5.157S212.8,146.344,212.818,148.667Z" transform="translate(-164.483 -142.51)" fill="#0f264c"/>
      <g id="Group_5059" data-name="Group 5059" transform="translate(39.861 11.932)">
        <path id="Path_3400" data-name="Path 3400" d="M211.155,172.158a1.755,1.755,0,0,1,1.649,1.812,2.578,2.578,0,0,0,1.148,1.988,4.362,4.362,0,0,1-2.855-.685c-.917-.725-1.309-2.3-.843-2.666A2.372,2.372,0,0,1,211.155,172.158Z" transform="translate(-205.047 -168.427)" fill="#0f264c"/>
        <path id="Path_3401" data-name="Path 3401" d="M204.181,163.739c.906.786,1.7,2.855-.3,3.84s-5.137-1.3-5.137-1.3l3.447-1.6Z" transform="translate(-198.745 -163.739)" fill="#0f264c"/>
        <path id="Path_3402" data-name="Path 3402" d="M210.935,171.389a3.914,3.914,0,0,0-.239-.838.183.183,0,0,0-.272-.086l-1.224.818a.182.182,0,0,0-.006.3,2.985,2.985,0,0,0,.567.326c.288.116.863-.211,1.089-.351A.177.177,0,0,0,210.935,171.389Z" transform="translate(-204.523 -167.469)" fill="#0053cc"/>
      </g>
      <path id="Path_3403" data-name="Path 3403" d="M178.858,167.622a1.756,1.756,0,0,0-2.032,1.369,2.578,2.578,0,0,1-1.587,1.659,4.361,4.361,0,0,0,2.936.012c1.063-.486,1.818-1.927,1.452-2.39A2.384,2.384,0,0,0,178.858,167.622Z" transform="translate(-145.79 -153.944)" fill="#0f264c"/>
      <path id="Path_3404" data-name="Path 3404" d="M188.534,147.333c-1.795.486-4.209,2.611-3.139,5.221-1.056.723-2.414,2.8-.827,4.13,1.7,1.43,5.9-.577,5.9-.577l.03-.681.479-5.076Z" transform="translate(-150.583 -142.668)" fill="#0f264c"/>
      <path id="Path_3405" data-name="Path 3405" d="M182.628,166.885a3.9,3.9,0,0,1,.431-.757.183.183,0,0,1,.285-.019l.995,1.085a.182.182,0,0,1-.066.293,2.972,2.972,0,0,1-.628.182c-.307.044-.789-.409-.975-.6A.177.177,0,0,1,182.628,166.885Z" transform="translate(-149.9 -153.094)" fill="#0053cc"/>
      <path id="Path_3406" data-name="Path 3406" d="M216.242,189.07c.846.657,1.778,1.358,2.7,1.994s1.867,1.279,2.826,1.868,1.936,1.14,2.919,1.663l.743.377.751.347c.25.12.5.225.756.325l.38.154c.125.051.265.11.346.133a8.378,8.378,0,0,0,1.414.307c.524.076,1.073.129,1.63.166,1.115.073,2.257.1,3.405.109s2.3,0,3.463-.035c1.157-.018,2.325-.063,3.476-.1l.219,1.739a68.044,68.044,0,0,1-7.041,1.044c-1.189.107-2.386.186-3.609.194-.613,0-1.232-.012-1.87-.058a10.025,10.025,0,0,1-2.029-.333c-.2-.054-.333-.1-.482-.155l-.442-.153c-.3-.1-.589-.2-.874-.323l-.86-.346-.842-.374a33.885,33.885,0,0,1-3.244-1.686c-1.045-.613-2.073-1.251-3.067-1.935s-1.95-1.384-2.924-2.2Z" transform="translate(-167.374 -165.917)" fill="#ff8b7b"/>
      <path id="Path_3407" data-name="Path 3407" d="M207.374,184.381c1.1-.86,5.644,1.954,7.024,3.127l-1.007,6.082s-6.533-2.738-6.926-4.611C206.056,187.029,206.539,185.034,207.374,184.381Z" transform="translate(-163.102 -163.215)" fill="#14365b"/>
      <path id="Path_3408" data-name="Path 3408" d="M273.734,203.24l2.738-2.124.218,3.283s-1.89,1.169-3.135.448Z" transform="translate(-200.555 -172.627)" fill="#ff8b7b"/>
      <path id="Path_3409" data-name="Path 3409" d="M282.6,200.387l1.4,1.56-3.642,2.045-.218-3.283Z" transform="translate(-204.221 -172.221)" fill="#ff8b7b"/>
      <path id="Path_3410" data-name="Path 3410" d="M168.275,396.483l3.451.255,1.262-7.943-3.451-.255Z" transform="translate(-141.911 -277.026)" fill="#ff8b7b"/>
      <path id="Path_3411" data-name="Path 3411" d="M113.172,373.629l2.927,1.846,5.215-6.186-2.927-1.846Z" transform="translate(-111.218 -265.275)" fill="#ff8b7b"/>
      <path id="Path_3412" data-name="Path 3412" d="M114.566,380.506l-2.739-2.759a.274.274,0,0,0-.362-.029l-2.5,1.853a.556.556,0,0,0-.046.827c.971.945,1.488,1.353,2.693,2.566.741.746,1.746,1.914,2.77,2.945,1,1.008,2.1.073,1.763-.447a6.772,6.772,0,0,1-1.327-4.4A.9.9,0,0,0,114.566,380.506Z" transform="translate(-108.761 -270.967)" fill="#14365b"/>
      <path id="Path_3413" data-name="Path 3413" d="M170.551,405.934h-3.888a.293.293,0,0,0-.289.236l-.613,3.076a.522.522,0,0,0,.521.615c1.357-.023,2.014-.1,3.724-.1,1.052,0,4,.109,5.458.109,1.421,0,1.609-1.437,1.011-1.566a12.743,12.743,0,0,1-5.357-2.155A.859.859,0,0,0,170.551,405.934Z" transform="translate(-140.505 -286.715)" fill="#14365b"/>
      <g id="Group_5060" data-name="Group 5060" transform="translate(4.942 102.17)">
        <path id="Path_3414" data-name="Path 3414" d="M173.754,388.8l-.7,4.414-3.4-.572.65-4.1Z" transform="translate(-147.619 -379.198)" fill="#ea7063"/>
        <path id="Path_3415" data-name="Path 3415" d="M122.142,367.446l2.928,1.846-2.159,2.558-3-1.767Z" transform="translate(-119.916 -367.446)" fill="#ea7063"/>
      </g>
      <path id="Path_3416" data-name="Path 3416" d="M174.2,199.629c2.667.518,8.324,1.621,13.794,2.689,7.128-19.3,5.577-19.925,5.577-19.925a27.7,27.7,0,0,0-3.105-1.462c-.066-.027-.128-.049-.186-.071-.877-.323-1.063-.372-2.241-.718-2.029-.483-3.92-.877-6.264-1.218-.151-.022-.3-.044-.447-.062-.425-.053-.846-.1-1.254-.137-.275-.031-.549-.049-.811-.066-.31-.018-.611-.035-.895-.049-1.515-.075-2.6-.053-2.6-.053C176.207,190.6,175.525,194.06,174.2,199.629Z" transform="translate(-145.212 -160.059)" fill="#14365b"/>
      <path id="Path_3417" data-name="Path 3417" d="M193.3,163.739c0,2.092-.322,5.862-1.995,6.933,0,0,.153,2.152,3.9,2.881,4.118.8,2.366-1.661,2.366-1.661-2.143-.975-1.76-2.631-1.064-4.121Z" transform="translate(-154.738 -151.807)" fill="#ff8b7b"/>
      <path id="Path_3418" data-name="Path 3418" d="M198.425,167.452l1.9,2.385a6.591,6.591,0,0,0-.41,1.074,2.825,2.825,0,0,1-1.746-2.381A3.071,3.071,0,0,1,198.425,167.452Z" transform="translate(-158.559 -153.875)" fill="#ea7063"/>
      <path id="Path_3419" data-name="Path 3419" d="M194.9,147.7c-.449,3.4-.711,4.836.652,6.895,2.05,3.1,6.331,2.9,7.788-.3,1.312-2.882,1.825-7.967-1.208-9.947A4.684,4.684,0,0,0,194.9,147.7Z" transform="translate(-156.541 -140.569)" fill="#ff8b7b"/>
      <path id="Path_3420" data-name="Path 3420" d="M203.469,138.539a4.3,4.3,0,0,1-.12,1.613,4.79,4.79,0,0,0-.127-.53c-1.215-4.011-6.682-3.057-8.331-1.332-2.661-.76-5.188-.153-4.848,3.086a4.033,4.033,0,0,0,.864,2.305c-.413,1.143.014,2.963,1.359,3.016,1.913.075,3.73-2.456,4.461-3.846a12.817,12.817,0,0,0,4.695.085c.245.15.432.249.432.249C203.414,142.372,204.589,141.572,203.469,138.539Z" transform="translate(-154.02 -136.803)" fill="#0f264c"/>
      <path id="Path_3421" data-name="Path 3421" d="M192.69,156.746a2.512,2.512,0,0,0,.581,1.827c.572.668,1.346.275,1.6-.521.225-.716.2-1.927-.573-2.305A1.128,1.128,0,0,0,192.69,156.746Z" transform="translate(-155.506 -147.29)" fill="#ff8b7b"/>
      <path id="Path_3422" data-name="Path 3422" d="M184.325,229.724s.053,27.385-2.187,37.7c-2.331,10.729-9.182,35.136-9.182,35.136l-4.97-.644s3.884-24.655,5.54-35.316c1.8-11.622.7-38.844.7-38.844Z" transform="translate(-141.75 -187.466)" fill="#0053cc"/>
      <path id="Path_3423" data-name="Path 3423" d="M172.738,393.55l-6.655-.862.283-2.354,7.555.886Z" transform="translate(-140.691 -278.025)" fill="#14365b"/>
      <path id="Path_3424" data-name="Path 3424" d="M154.122,228.109s-7.429,22.634-11.117,35.67c-3.89,13.754-18.8,28.966-18.8,28.966l-4.277-2.47s10.18-14.44,13.935-27.274c7.622-26.054,4.49-31.573,10.108-36.869Z" transform="translate(-114.981 -186.561)" fill="#0053cc"/>
      <path id="Path_3425" data-name="Path 3425" d="M123.683,371.087l-5.939-3.43,1.479-2.115,6.6,3.636Z" transform="translate(-113.765 -264.215)" fill="#14365b"/>
      <path id="Path_3426" data-name="Path 3426" d="M206.446,156.722c-.054.274.048.525.228.559s.367-.159.421-.433-.049-.524-.228-.559S206.5,156.448,206.446,156.722Z" transform="translate(-163.165 -147.655)" fill="#0f264c"/>
      <path id="Path_3427" data-name="Path 3427" d="M213.437,158.084c-.054.274.048.524.227.559s.368-.159.421-.433-.049-.524-.228-.559S213.49,157.809,213.437,158.084Z" transform="translate(-167.06 -148.413)" fill="#0f264c"/>
      <path id="Path_3428" data-name="Path 3428" d="M214.219,157.578l.7-.062S214.476,157.964,214.219,157.578Z" transform="translate(-167.503 -148.341)" fill="#0f264c"/>
      <path id="Path_3429" data-name="Path 3429" d="M210.927,159.336a7.454,7.454,0,0,0,.636,1.938,1.2,1.2,0,0,1-1.013-.007Z" transform="translate(-165.459 -149.354)" fill="#ff5652"/>
      <path id="Path_3430" data-name="Path 3430" d="M205.738,163.944l-.016,0A2.339,2.339,0,0,1,204,162.65a.082.082,0,0,1,.152-.062,2.217,2.217,0,0,0,1.6,1.193.082.082,0,0,1-.016.163Z" transform="translate(-161.806 -151.137)" fill="#0f264c"/>
      <path id="Path_3431" data-name="Path 3431" d="M204.661,153.7a.164.164,0,0,1-.109-.286,1.627,1.627,0,0,1,1.439-.409.164.164,0,0,1,.116.2.162.162,0,0,1-.2.116h0a1.3,1.3,0,0,0-1.136.336A.164.164,0,0,1,204.661,153.7Z" transform="translate(-162.088 -145.807)" fill="#0f264c"/>
      <path id="Path_3432" data-name="Path 3432" d="M215.861,154.5a.164.164,0,0,1-.152-.1,1.307,1.307,0,0,0-.88-.792.164.164,0,1,1,.059-.322,1.628,1.628,0,0,1,1.123.989.164.164,0,0,1-.088.214A.168.168,0,0,1,215.861,154.5Z" transform="translate(-167.769 -145.984)" fill="#0f264c"/>
      <g id="Group_5061" data-name="Group 5061" transform="translate(42.519 6.406)">
        <path id="Path_3433" data-name="Path 3433" d="M205.876,156.353a.909.909,0,0,1-.71-.351,2.808,2.808,0,0,1-.354-2.2c.252-1.4,1.131-2.535,1.961-2.535a.91.91,0,0,1,.71.351,2.808,2.808,0,0,1,.354,2.2C207.585,155.216,206.706,156.353,205.876,156.353Zm.9-4.979c-.779,0-1.609,1.1-1.852,2.444a2.7,2.7,0,0,0,.33,2.113.8.8,0,0,0,.625.311c.779,0,1.61-1.1,1.852-2.444l.055.01-.055-.01a2.7,2.7,0,0,0-.33-2.113A.8.8,0,0,0,206.773,151.374Z" transform="translate(-204.744 -151.263)" fill="#dce9ff"/>
        <path id="Path_3434" data-name="Path 3434" d="M213.6,157.742h-.015a.964.964,0,0,1-.74-.374,2.589,2.589,0,0,1-.359-2.048c.227-1.305,1.077-2.358,1.9-2.358h.016a.966.966,0,0,1,.74.375,2.589,2.589,0,0,1,.359,2.048h0C215.271,156.689,214.421,157.742,213.6,157.742Zm.785-4.67c-.77,0-1.571,1.012-1.789,2.266a2.519,2.519,0,0,0,.335,1.959.856.856,0,0,0,.656.334h.014c.77,0,1.571-1.012,1.79-2.266h0a2.518,2.518,0,0,0-.335-1.958.856.856,0,0,0-.656-.335Z" transform="translate(-209.024 -152.209)" fill="#dce9ff"/>
      </g>
      <path id="Path_3435" data-name="Path 3435" d="M122.682,386.2h-.023c-.439-.022-.908-.684-1.149-1.077A.082.082,0,0,1,121.6,385c.139.029,1.36.3,1.515.711a.278.278,0,0,1-.049.278A.471.471,0,0,1,122.682,386.2Zm-.925-.995c.34.512.673.819.91.831a.3.3,0,0,0,.266-.146.117.117,0,0,0,.026-.122C122.877,385.55,122.243,385.326,121.757,385.2Z" transform="translate(-115.856 -275.053)" fill="#0053cc"/>
      <path id="Path_3436" data-name="Path 3436" d="M121.957,384.354a1.549,1.549,0,0,1-.4-.042.081.081,0,0,1-.036-.136c.03-.03.709-.7,1.208-.7h.034a.427.427,0,0,1,.322.169.285.285,0,0,1,.032.357C122.956,384.247,122.391,384.354,121.957,384.354Zm-.2-.171a1.757,1.757,0,0,0,1.228-.269c.022-.033.039-.082-.025-.165a.266.266,0,0,0-.2-.106A1.9,1.9,0,0,0,121.755,384.182Z" transform="translate(-115.856 -274.206)" fill="#0053cc"/>
      <path id="Path_3437" data-name="Path 3437" d="M178.011,406.2a5.825,5.825,0,0,1-1.084-.124.083.083,0,0,1-.065-.07.081.081,0,0,1,.044-.084c.161-.082,1.586-.79,1.995-.549a.251.251,0,0,1,.125.219.473.473,0,0,1-.17.4A1.348,1.348,0,0,1,178.011,406.2Zm-.807-.24a2.241,2.241,0,0,0,1.546-.1.313.313,0,0,0,.112-.267.088.088,0,0,0-.044-.084C178.6,405.383,177.789,405.684,177.2,405.958Z" transform="translate(-146.694 -286.373)" fill="#0053cc"/>
      <path id="Path_3438" data-name="Path 3438" d="M176.943,405.052a.078.078,0,0,1-.049-.016.081.081,0,0,1-.032-.076c.008-.062.21-1.474.982-1.474a.567.567,0,0,1,.066,0c.221.023.284.133.3.223.061.389-.8,1.143-1.232,1.333A.078.078,0,0,1,176.943,405.052Zm.9-1.4c-.5,0-.721.818-.793,1.172.443-.26,1.03-.851.994-1.084,0-.018-.011-.071-.152-.086Z" transform="translate(-146.694 -285.351)" fill="#0053cc"/>
      <path id="Path_3439" data-name="Path 3439" d="M207.229,156.216l.7-.062S207.486,156.6,207.229,156.216Z" transform="translate(-163.61 -147.582)" fill="#0f264c"/>
      <path id="Path_3440" data-name="Path 3440" d="M191.021,184.811c-5.772-2.184-7.557-5.453-7.42-6.14v0c.284.013.585.031.895.053.049,0,.1.009.151.009.213.018.439.031.66.058.408.035.828.08,1.254.137.146.018.3.04.447.062a44.615,44.615,0,0,1,6.264,1.218c.939.275,1.249.363,1.776.549.137.049.288.1.465.168.058.022.12.044.186.071C196.142,181.98,196.04,184.009,191.021,184.811Z" transform="translate(-150.444 -160.122)" fill="#ff8b7b"/>
      <path id="Path_3441" data-name="Path 3441" d="M191.021,184.811c-5.772-2.184-7.557-5.453-7.42-6.14v0c.284.013.585.031.895.053.049,0,.1.009.151.009,1.169,1.661,3.73,3.956,6.339,4.27,2.1-.456,4.08-.948,4.062-2.246.137.049.288.1.465.168.058.022.12.044.186.071C196.142,181.98,196.04,184.009,191.021,184.811Z" transform="translate(-150.444 -160.122)" fill="#0053cc"/>
      <path id="Path_3442" data-name="Path 3442" d="M172.98,224.13l-.862,1.114c-.067.086.027.206.187.237l14.467,2.818c.124.024.239-.017.263-.093l.365-1.211c.025-.084-.068-.177-.2-.2l-13.97-2.721A.255.255,0,0,0,172.98,224.13Z" transform="translate(-144.04 -185.408)" fill="#14365b"/>
      <path id="Path_3443" data-name="Path 3443" d="M177.03,226.284l-.374-.073c-.074-.014-.124-.064-.109-.11l.488-1.57c.015-.046.087-.072.162-.057l.374.073c.075.015.124.064.11.11l-.488,1.57C177.177,226.272,177.1,226.3,177.03,226.284Z" transform="translate(-146.517 -185.635)" fill="#0053cc"/>
      <path id="Path_3444" data-name="Path 3444" d="M174.548,189.784c-.166,1.049-.328,2.2-.439,3.3s-.219,2.235-.274,3.351c-.027.558-.045,1.116-.05,1.671s-.011,1.11,0,1.663a29.058,29.058,0,0,0,.253,3.242,3.113,3.113,0,0,0,.435,1.034,10.27,10.27,0,0,0,.883,1.23,27.614,27.614,0,0,0,2.267,2.389c.809.78,1.661,1.534,2.535,2.266s1.765,1.468,2.648,2.172l-.951,1.472a46.261,46.261,0,0,1-5.963-3.893,25.563,25.563,0,0,1-2.745-2.436,13.251,13.251,0,0,1-1.256-1.512,5.869,5.869,0,0,1-.979-2.123l-.165-.939c-.057-.306-.1-.61-.132-.914-.085-.61-.136-1.217-.186-1.824a34.581,34.581,0,0,1-.08-3.626c.035-1.2.1-2.4.218-3.592s.27-2.357.511-3.593Z" transform="translate(-143.054 -165.947)" fill="#ff8b7b"/>
      <path id="Path_3445" data-name="Path 3445" d="M171.346,179.457c-1.894,1.535-1.442,6.087-1.442,6.087l6.378,2.1s-.292-5.248-.608-7.136C175.3,178.265,173.208,177.948,171.346,179.457Z" transform="translate(-142.792 -160.045)" fill="#14365b"/>
      <path id="Path_3446" data-name="Path 3446" d="M195.874,239.014l2.883-1.07-.443,2.741s-2.091.752-3.159-.211Z" transform="translate(-156.884 -193.141)" fill="#ff8b7b"/>
      <path id="Path_3447" data-name="Path 3447" d="M206.163,238.348v2.119l-3.877.219.444-2.741Z" transform="translate(-160.857 -193.141)" fill="#ff8b7b"/>
      <path id="Path_3448" data-name="Path 3448" d="M202.183,231.183l-.374-.073c-.074-.015-.124-.064-.109-.11l.488-1.57c.014-.046.087-.072.161-.057l.374.073c.074.014.124.064.109.11l-.488,1.57C202.33,231.172,202.257,231.2,202.183,231.183Z" transform="translate(-160.528 -188.364)" fill="#0053cc"/>
      <path id="Path_3449" data-name="Path 3449" d="M189.606,228.734l-.374-.073c-.075-.015-.124-.064-.11-.11l.488-1.57c.014-.046.087-.071.161-.057l.374.073c.074.015.124.064.109.11l-.488,1.57C189.753,228.722,189.68,228.748,189.606,228.734Z" transform="translate(-153.522 -187)" fill="#0053cc"/>
    </g>
    <g id="Group_5066" data-name="Group 5066" transform="translate(86.879 157.333)">
      <g id="Group_5063" data-name="Group 5063" transform="translate(0)">
        <path id="Path_3450" data-name="Path 3450" d="M125.994,230.175l22.964,50.155a4.755,4.755,0,0,0,6.283,2.335L158.887,281,243.3,242.348a4.75,4.75,0,0,0,2.336-6.279l-20.289-44.31-2.675-5.85a4.754,4.754,0,0,0-6.279-2.335L128.329,223.9A4.754,4.754,0,0,0,125.994,230.175Z" transform="translate(-125.568 -183.148)" fill="#318fff"/>
        <rect id="Rectangle_283" data-name="Rectangle 283" width="106.333" height="27.18" transform="translate(117.743 47.833) rotate(155.4)" fill="#45a2ff"/>
        <rect id="Rectangle_284" data-name="Rectangle 284" width="67.196" height="9.727" transform="translate(106.471 43.396) rotate(155.4)" fill="#dce9ff"/>
        <rect id="Rectangle_285" data-name="Rectangle 285" width="106.333" height="14.501" transform="translate(108.591 27.842) rotate(155.4)" fill="#0053cc"/>
      </g>
      <g id="Group_5065" data-name="Group 5065" transform="translate(13.23 8.611)">
        <path id="Path_3451" data-name="Path 3451" d="M155.76,241.634l19.763,50.192,84.418-38.649a4.75,4.75,0,0,0,2.336-6.279l-20.289-44.31-83.553,32.9A4.754,4.754,0,0,0,155.76,241.634Z" transform="translate(-155.433 -202.587)" fill="#8db6f3" style="mix-blend-mode: multiply;isolation: isolate"/>
        <rect id="Rectangle_286" data-name="Rectangle 286" width="0.443" height="2.086" transform="translate(111.64 23.346) rotate(-19.356)" fill="#318fff"/>
        <rect id="Rectangle_287" data-name="Rectangle 287" width="0.443" height="8.221" transform="matrix(0.944, -0.331, 0.331, 0.944, 108.157, 13.43)" fill="#318fff"/>
        <path id="Path_3452" data-name="Path 3452" d="M165.458,236.558l91.384-32.093a4.752,4.752,0,0,1,6.041,2.9l18.278,52.046a4.752,4.752,0,0,1-2.9,6.041l-91.384,32.093a4.752,4.752,0,0,1-6.04-2.9L162.558,242.6A4.752,4.752,0,0,1,165.458,236.558Z" transform="translate(-159.253 -203.485)" fill="url(#linear-gradient)"/>
        <rect id="Rectangle_288" data-name="Rectangle 288" width="106.333" height="23.996" transform="matrix(-0.944, 0.331, -0.331, -0.944, 118.576, 46.439)" fill="#45a2ff"/>
        <rect id="Rectangle_289" data-name="Rectangle 289" width="21.981" height="3.422" transform="translate(99.749 16.015) rotate(160.649)" fill="#dce9ff"/>
        <rect id="Rectangle_290" data-name="Rectangle 290" width="17.637" height="1.789" transform="translate(113.103 54.038) rotate(160.649)" fill="#dce9ff"/>
        <rect id="Rectangle_291" data-name="Rectangle 291" width="22.726" height="1.789" transform="translate(114.237 57.267) rotate(160.649)" fill="#dce9ff"/>
        <rect id="Rectangle_292" data-name="Rectangle 292" width="11.363" height="3.85" transform="translate(38.466 83.877) rotate(160.649)" fill="#dce9ff"/>
        <g id="Group_5064" data-name="Group 5064" transform="translate(26.664 39.596)">
          <path id="Path_3453" data-name="Path 3453" d="M364.357,301.51l12.523-4.4a2.644,2.644,0,0,0,1.619-3.371h0a2.644,2.644,0,0,0-3.371-1.619l-12.523,4.4a2.645,2.645,0,0,0-1.619,3.372h0A2.645,2.645,0,0,0,364.357,301.51Z" transform="translate(-296.511 -291.972)" fill="#dce9ff"/>
          <path id="Path_3454" data-name="Path 3454" d="M315.954,318.509l12.522-4.4a2.644,2.644,0,0,0,1.619-3.371h0a2.644,2.644,0,0,0-3.372-1.619l-12.522,4.4a2.645,2.645,0,0,0-1.619,3.372h0A2.645,2.645,0,0,0,315.954,318.509Z" transform="translate(-269.549 -301.441)" fill="#dce9ff"/>
          <path id="Path_3455" data-name="Path 3455" d="M267.55,335.508l12.523-4.4a2.644,2.644,0,0,0,1.619-3.371h0a2.644,2.644,0,0,0-3.371-1.619l-12.523,4.4a2.645,2.645,0,0,0-1.619,3.372h0A2.645,2.645,0,0,0,267.55,335.508Z" transform="translate(-242.587 -310.909)" fill="#dce9ff"/>
          <path id="Path_3456" data-name="Path 3456" d="M219.146,352.507l12.523-4.4a2.644,2.644,0,0,0,1.619-3.371h0a2.644,2.644,0,0,0-3.371-1.619l-12.523,4.4a2.644,2.644,0,0,0-1.619,3.372h0A2.644,2.644,0,0,0,219.146,352.507Z" transform="translate(-215.625 -320.378)" fill="#dce9ff"/>
        </g>
        <rect id="Rectangle_293" data-name="Rectangle 293" width="15.443" height="10.641" rx="4.103" transform="translate(32.257 44.546) rotate(160.649)" fill="#0053cc"/>
      </g>
    </g>
  </g>
</svg>
