<svg xmlns="http://www.w3.org/2000/svg" width="9.157" height="14.651" viewBox="0 0 9.157 14.651">
  <path id="Icon_awesome-mobile-alt" data-name="Icon awesome-mobile-alt" d="M7.783,0H1.374A1.374,1.374,0,0,0,0,1.374v11.9a1.374,1.374,0,0,0,1.374,1.374h6.41a1.374,1.374,0,0,0,1.374-1.374V1.374A1.374,1.374,0,0,0,7.783,0Zm-3.2,13.735a.916.916,0,1,1,.916-.916A.915.915,0,0,1,4.578,13.735Zm3.2-3.09a.344.344,0,0,1-.343.343H1.717a.344.344,0,0,1-.343-.343V1.717a.344.344,0,0,1,.343-.343H7.44a.344.344,0,0,1,.343.343Z" fill="#fbfcff"/>
</svg>
