<svg xmlns="http://www.w3.org/2000/svg" xmlns:xlink="http://www.w3.org/1999/xlink" width="72" height="72" viewBox="0 0 72 72"><defs><linearGradient id="a" x1="1" y1="0.116" x2="0.169" y2="0.925" gradientUnits="objectBoundingBox"><stop offset="0" stop-color="#a9e2fd"/><stop offset="1" stop-color="#8ab1f2"/></linearGradient></defs><g transform="translate(-17105 -3086)"><g transform="translate(17105 3085)"><circle cx="36" cy="36" r="36" transform="translate(0 1)" fill="url(#a)"/></g><g transform="translate(17119.309 3101.97)"><g transform="translate(0 0)"><path d="M7.306,9.43a.978.978,0,0,1,1-1h5.552V4.5H8.386A4.973,4.973,0,0,0,3.375,9.43v5.552H7.306Z" transform="translate(-3.375 -4.5)" fill="#fff"/><path d="M29.161,4.5H23.625V8.431h5.5a1.019,1.019,0,0,1,1.048,1v5.552h3.931V9.43A4.922,4.922,0,0,0,29.161,4.5Z" transform="translate(9.162 -4.5)" fill="#fff"/><path d="M30.176,27.97a.978.978,0,0,1-1,1H23.625v4.012h5.552a4.973,4.973,0,0,0,4.93-5.011V22.5H30.176Z" transform="translate(9.162 6.959)" fill="#fff"/><path d="M8.3,28.969a.978.978,0,0,1-1-1V22.5H3.375v5.47a5.043,5.043,0,0,0,5.011,5.011h5.47V28.969Z" transform="translate(-3.375 6.959)" fill="#fff"/><path d="M8.819,3.178h-5v5h5Zm1.25-1.25v7.5h-7.5v-7.5Zm-5,2.5h2.5v2.5H5.07Zm16.246-1.25h-5v5h5v-5Zm1.25-1.25v7.5h-7.5v-7.5Zm-5,2.5h2.5v2.5h-2.5ZM8.819,15.675h-5v5h5Zm1.25-1.25v7.5h-7.5v-7.5Zm-5,2.5h2.5v2.5H5.07Zm6.248-15h1.25v1.25h-1.25Zm1.25,1.25h1.25v1.25h-1.25Zm-1.25,1.25h1.25v1.25h-1.25Zm1.25,1.25h1.25v1.25h-1.25Zm-1.25,1.25h1.25v1.25h-1.25Zm1.25,1.25h1.25v1.25h-1.25Zm-1.25,1.25h1.25v1.25h-1.25Zm0,2.5h1.25v1.25h-1.25Zm1.25,1.25h1.25v1.25h-1.25Zm-1.25,1.25h1.25v1.25h-1.25Zm1.25,1.25h1.25v1.25h-1.25Zm-1.25,1.25h1.25v1.25h-1.25Zm1.25,1.25h1.25v1.25h-1.25Zm-1.25,1.25h1.25v1.25h-1.25Zm1.25,1.25h1.25v1.25h-1.25Zm8.748-8.748h1.25v1.25h-1.25Zm-17.5,0H5.07v1.25H3.82Zm1.25-1.25H6.32v1.25H5.07Zm-2.5,0H3.82v1.25H2.571Zm5,0h1.25v1.25H7.569Zm1.25,1.25h1.25v1.25H8.819Zm1.25-1.25h1.25v1.25h-1.25Zm3.749,1.25h1.25v1.25h-1.25Zm1.25-1.25h1.25v1.25h-1.25Zm1.25,1.25h1.25v1.25h-1.25Zm1.25-1.25h1.25v1.25h-1.25Zm1.25,1.25h1.25v1.25h-1.25Zm1.25-1.25h1.25v1.25h-1.25Zm1.25,3.749h1.25v1.25h-1.25Zm-7.5,0h1.25v1.25h-1.25Zm1.25-1.25h1.25v1.25h-1.25Zm1.25,1.25h1.25v1.25h-1.25Zm2.5,0h1.25v1.25h-1.25Zm1.25-1.25h1.25v1.25h-1.25Zm1.25,3.749h1.25v1.25h-1.25Zm-7.5,0h1.25v1.25h-1.25Zm1.25-1.25h1.25v1.25h-1.25Zm2.5,0h1.25v1.25h-1.25Zm1.25,1.25h1.25v1.25h-1.25Zm1.25-1.25h1.25v1.25h-1.25Zm1.25,3.749h1.25v1.25h-1.25Zm-6.248-1.25h1.25v1.25h-1.25Zm1.25,1.25h1.25v1.25h-1.25Zm1.25-1.25h1.25v1.25h-1.25Zm1.25,1.25h1.25v1.25h-1.25Zm-3.749,1.25h1.25v1.25h-1.25Zm2.5,0h1.25v1.25h-1.25Zm2.5,0h1.25v1.25h-1.25Z" transform="translate(8.835 8.045)" fill="#fff"/></g></g></g></svg>