<svg xmlns="http://www.w3.org/2000/svg" xmlns:xlink="http://www.w3.org/1999/xlink" width="90" height="90" viewBox="0 0 90 90"><defs><linearGradient id="a" x1="1" y1="0.5" x2="0" y2="0.5" gradientUnits="objectBoundingBox"><stop offset="0" stop-color="#a9e2fd"/><stop offset="1" stop-color="#8ab1f2"/></linearGradient><filter id="b" x="0" y="0" width="90" height="90" filterUnits="userSpaceOnUse"><feOffset dy="3" input="SourceAlpha"/><feGaussianBlur stdDeviation="3" result="c"/><feFlood flood-opacity="0.161"/><feComposite operator="in" in2="c"/><feComposite in="SourceGraphic"/></filter></defs><g transform="translate(9 6)"><g transform="matrix(1, 0, 0, 1, -9, -6)" filter="url(#b)"><circle cx="36" cy="36" r="36" transform="translate(9 6)" fill="url(#a)"/></g><g transform="translate(19 23.121)"><path d="M33.442,68.494a1.7,1.7,0,0,0-2.4,0l-20.331,20.3L2.9,80.989a1.7,1.7,0,0,0-2.4,2.4l9.015,9a1.7,1.7,0,0,0,2.4,0L33.442,70.89A1.692,1.692,0,0,0,33.442,68.494Z" transform="translate(0 -67.997)" fill="#fff"/></g></g></svg>