<svg xmlns="http://www.w3.org/2000/svg"
    xmlns:xlink="http://www.w3.org/1999/xlink" width="230" height="228" viewBox="0 0 230 228">
    <defs>
        <linearGradient id="linear-gradient" x1="1" y1="0.5" x2="0" y2="0.5" gradientUnits="objectBoundingBox">
            <stop offset="0" stop-color="#a9e2fd"/>
            <stop offset="1" stop-color="#8ab1f2"/>
        </linearGradient>
    </defs>
    <g id="Group_5084" data-name="Group 5084" transform="translate(-17000 -3887)">
        <g id="Group_5086" data-name="Group 5086">
            <ellipse id="Ellipse_399" data-name="Ellipse 399" cx="37" cy="36" rx="37" ry="36" transform="translate(17078 3965)" fill="#6f7896" opacity="0.526"/>
            <circle id="Ellipse_398" data-name="Ellipse 398" cx="36" cy="36" r="36" transform="translate(17078 3965)" fill="url(#linear-gradient)"/>
            <g id="tick_1_" data-name="tick (1)" transform="translate(17097 3920.123)">
                <g id="Group_5082" data-name="Group 5082" transform="translate(0 67.997)">
                    <path id="Path_11171" data-name="Path 11171" d="M33.442,68.494a1.7,1.7,0,0,0-2.4,0l-20.331,20.3L2.9,80.989a1.7,1.7,0,0,0-2.4,2.4l9.015,9a1.7,1.7,0,0,0,2.4,0L33.442,70.89A1.692,1.692,0,0,0,33.442,68.494Z" transform="translate(0 -67.997)" fill="#fff"/>
                </g>
            </g>
        </g>
    </g>
</svg>
