<svg xmlns="http://www.w3.org/2000/svg" width="168" height="47" viewBox="0 0 168 47">
  <text id="Delete" transform="translate(93.107 31)" fill="#f47a7a" font-size="20" font-family="Nunito-SemiBold, Nunito" font-weight="600"><tspan x="-29.23" y="0">Delete</tspan></text>
  <g id="Path_11174" data-name="Path 11174" fill="none" stroke-linejoin="round" opacity="0.09">
    <path d="M23.644,0H144.356a23.5,23.5,0,1,1,0,47H23.644a23.5,23.5,0,1,1,0-47Z" stroke="none"/>
    <path d="M 23.64443969726563 1 C 20.58625793457031 1 17.62014770507813 1.595043182373047 14.82847595214844 2.768608093261719 C 12.1319580078125 3.902172088623047 9.710113525390625 5.52508544921875 7.630233764648438 7.592262268066406 C 5.55078125 9.659023284912109 3.918319702148438 12.06530380249023 2.778244018554688 14.74432754516602 C 1.598281860351563 17.51700019836426 1 20.46284866333008 1 23.5 C 1 26.53715133666992 1.598281860351563 29.48299980163574 2.778244018554688 32.25567626953125 C 3.918319702148438 34.93469619750977 5.55078125 37.34098052978516 7.630233764648438 39.40773773193359 C 9.710113525390625 41.47491455078125 12.1319580078125 43.09782409667969 14.82847595214844 44.23139190673828 C 17.62014770507813 45.40495681762695 20.58625793457031 46 23.64443969726563 46 L 144.3555450439453 46 C 147.4137115478516 46 150.3798522949219 45.40495681762695 153.1714935302734 44.23139190673828 C 155.8680419921875 43.09782409667969 158.2898864746094 41.47491455078125 160.3697662353516 39.40773773193359 C 162.44921875 37.34098052978516 164.0816802978516 34.93469619750977 165.2217559814453 32.25567626953125 C 166.4017181396484 29.48299980163574 167 26.53715133666992 167 23.5 C 167 20.46284866333008 166.4017181396484 17.51700019836426 165.2217559814453 14.74432754516602 C 164.0816802978516 12.06530380249023 162.44921875 9.659023284912109 160.3697662353516 7.592262268066406 C 158.2898864746094 5.52508544921875 155.8680419921875 3.902172088623047 153.1714935302734 2.768608093261719 C 150.3798522949219 1.595043182373047 147.4137115478516 1 144.3555450439453 1 L 23.64443969726563 1 M 23.64443969726563 0 L 144.3555450439453 0 C 157.4140167236328 0 168 10.52130508422852 168 23.5 C 168 36.47869491577148 157.4140167236328 47 144.3555450439453 47 L 23.64443969726563 47 C 10.58598327636719 47 0 36.47869491577148 0 23.5 C 0 10.52130508422852 10.58598327636719 0 23.64443969726563 0 Z" stroke="none"/>
  </g>
  <path id="iconfinder_Recycle_bin__2638315" d="M20.228,24.216H6.557V8.665H4.279V23.883a2.561,2.561,0,0,0,2.279,2.555H20.228a2.561,2.561,0,0,0,2.279-2.555V8.665H20.228ZM16.81,4.222V2H9.975V4.222H2V6.443H24.785V4.222ZM9.975,10.886V21.994h2.279V10.886Zm4.557,0V21.994H16.81V10.886Z" transform="translate(13.107 9)" fill="#f47a7a"/>
</svg>
