<svg xmlns="http://www.w3.org/2000/svg" width="38" height="38" viewBox="0 0 38 38">
  <g id="Group_5069" data-name="Group 5069" transform="translate(-308.717 -57.717)">
    <circle id="Ellipse_396" data-name="Ellipse 396" cx="19" cy="19" r="19" transform="translate(308.717 57.717)" fill="#fff"/>
    <path id="Icon_awesome-check" data-name="Icon awesome-check" d="M7.471,20.659.322,13.51a1.1,1.1,0,0,1,0-1.555L1.878,10.4a1.1,1.1,0,0,1,1.555,0l4.816,4.816L18.564,4.9a1.1,1.1,0,0,1,1.555,0l1.555,1.555a1.1,1.1,0,0,1,0,1.555L9.027,20.659A1.1,1.1,0,0,1,7.471,20.659Z" transform="translate(316.88 63.938)" fill="#8db6f3"/>
  </g>
</svg>
