<svg xmlns="http://www.w3.org/2000/svg" width="23.049" height="23.058" viewBox="0 0 23.049 23.058">
  <g id="_Icon_Color" data-name="🔹Icon Color" transform="translate(0)">
    <path id="_Icon_Color-2" data-name="🔹Icon Color" d="M21.626,23.058a1.416,1.416,0,0,1-1.007-.415L14.873,16.9V15.83l-.365-.378a8.812,8.812,0,0,1-5.725,2.125,9.063,9.063,0,0,1-1.493-.125A8.838,8.838,0,0,1,.07,9.9,8.792,8.792,0,0,1,8.787,0,9.139,9.139,0,0,1,9.9.068a8.776,8.776,0,0,1,5.557,14.437l.378.365H16.9l5.732,5.758a1.422,1.422,0,0,1-1.007,2.43ZM8.79,2.7a6.083,6.083,0,1,0,6.084,6.083A6.09,6.09,0,0,0,8.79,2.7Z" transform="translate(0 0)" fill="#fff"/>
  </g>
</svg>
